<?xml version="1.0" encoding="UTF-8" standalone="no"?>
<svg
   xmlns:dc="http://purl.org/dc/elements/1.1/"
   xmlns:cc="http://creativecommons.org/ns#"
   xmlns:rdf="http://www.w3.org/1999/02/22-rdf-syntax-ns#"
   xmlns:svg="http://www.w3.org/2000/svg"
   xmlns="http://www.w3.org/2000/svg"
   xmlns:xlink="http://www.w3.org/1999/xlink"
   xmlns:sodipodi="http://sodipodi.sourceforge.net/DTD/sodipodi-0.dtd"
   xmlns:inkscape="http://www.inkscape.org/namespaces/inkscape"
   viewBox="0 0 36 36"
   version="1.1"
   id="svg6290"
   sodipodi:docname="transC.svg"
   inkscape:version="1.0.2-2 (e86c870879, 2021-01-15)"
   inkscape:export-filename="C:\Users\tacos\Documents\random things\twemoji\Letters &amp; Numbers\transC.png"
   inkscape:export-xdpi="581.33301"
   inkscape:export-ydpi="581.33301">
  <metadata
     id="metadata6296">
    <rdf:RDF>
      <cc:Work
         rdf:about="">
        <dc:format>image/svg+xml</dc:format>
        <dc:type
           rdf:resource="http://purl.org/dc/dcmitype/StillImage" />
        <dc:title />
      </cc:Work>
    </rdf:RDF>
  </metadata>
  <defs
     id="defs6294">
    <pattern
       patternUnits="userSpaceOnUse"
       width="36.061364"
       height="33.545458"
       id="pattern3786">
      <rect
         style="fill:#55cdfc;fill-opacity:1"
         id="rect3737"
         width="36.061363"
         height="6.7090917"
         x="0"
         y="0" />
      <rect
         style="fill:#f7a8b8;fill-opacity:1"
         id="rect3737-1"
         width="36.061363"
         height="6.7090917"
         x="4.7132923e-07"
         y="6.7090917" />
      <rect
         style="fill:#efefef;fill-opacity:1"
         id="rect3737-7"
         width="36.061363"
         height="6.7090917"
         x="4.7132923e-07"
         y="13.418183" />
      <rect
         style="fill:#f7a8b8;fill-opacity:1"
         id="rect3737-2"
         width="36.061363"
         height="6.7090917"
         x="4.7132923e-07"
         y="20.127275" />
      <rect
         style="fill:#55cdfc;fill-opacity:1"
         id="rect3737-28"
         width="36.061363"
         height="6.7090917"
         x="4.7132923e-07"
         y="26.836367" />
    </pattern>
    <pattern
       inkscape:collect="always"
       xlink:href="#pattern3795"
       id="pattern5619"
       patternTransform="scale(1,1.0758846)" />
    <pattern
       inkscape:collect="always"
       xlink:href="#pattern3786-1"
       id="pattern3795"
       patternTransform="scale(1,1.0758846)" />
    <pattern
       patternUnits="userSpaceOnUse"
       width="36.061364"
       height="33.545458"
       id="pattern3786-1">
      <rect
         style="fill:#55cdfc;fill-opacity:1"
         id="rect3737-79"
         width="36.061363"
         height="6.7090917"
         x="0"
         y="0" />
      <rect
         style="fill:#f7a8b8;fill-opacity:1"
         id="rect3737-1-7"
         width="36.061363"
         height="6.7090917"
         x="4.7132923e-07"
         y="6.7090917" />
      <rect
         style="fill:#efefef;fill-opacity:1"
         id="rect3737-7-4"
         width="36.061363"
         height="6.7090917"
         x="4.7132923e-07"
         y="13.418183" />
      <rect
         style="fill:#f7a8b8;fill-opacity:1"
         id="rect3737-2-5"
         width="36.061363"
         height="6.7090917"
         x="4.7132923e-07"
         y="20.127275" />
      <rect
         style="fill:#55cdfc;fill-opacity:1"
         id="rect3737-28-9"
         width="36.061363"
         height="6.7090917"
         x="4.7132923e-07"
         y="26.836367" />
    </pattern>
    <pattern
       patternUnits="userSpaceOnUse"
       width="36.061363"
       height="36.091045"
       patternTransform="translate(0.0776799,0.00498481)"
       id="pattern6923">
      <rect
         style="fill:url(#pattern5619);stroke:none;stroke-width:1.03725"
         width="36.061363"
         height="36.091045"
         x="0"
         y="0"
         id="rect5617" />
    </pattern>
  </defs>
  <sodipodi:namedview
     pagecolor="#ffffff"
     bordercolor="#666666"
     borderopacity="1"
     objecttolerance="10"
     gridtolerance="10"
     guidetolerance="10"
     inkscape:pageopacity="0"
     inkscape:pageshadow="2"
     inkscape:window-width="1837"
     inkscape:window-height="1051"
     id="namedview6292"
     showgrid="false"
     inkscape:zoom="17.284832"
     inkscape:cx="14.899047"
     inkscape:cy="18.745584"
     inkscape:window-x="-9"
     inkscape:window-y="-9"
     inkscape:window-maximized="1"
     inkscape:current-layer="svg6290"
     inkscape:document-rotation="0" />
  <path
     fill="#3B88C3"
     d="M36 32c0 2.209-1.791 4-4 4H4c-2.209 0-4-1.791-4-4V4c0-2.209 1.791-4 4-4h28c2.209 0 4 1.791 4 4v28z"
     id="path6286"
     style="fill:url(#pattern6923);fill-opacity:1.0" />
  <path
     fill="#FFF"
     d="M19.723 6.552c2.264 0 6.666.744 6.666 3.473 0 1.116-.775 2.077-1.922 2.077-1.272 0-2.139-1.085-4.744-1.085-3.844 0-5.829 3.256-5.829 7.038 0 3.689 2.015 6.852 5.829 6.852 2.605 0 3.658-1.302 4.93-1.302 1.396 0 2.047 1.395 2.047 2.107 0 2.977-4.682 3.659-6.976 3.659-6.294 0-10.666-4.992-10.666-11.41-.001-6.448 4.34-11.409 10.665-11.409z"
     id="path6288"
     style="stroke:#f7a8b8;stroke-opacity:1;stroke-width:1;stroke-miterlimit:4;stroke-dasharray:none" />
</svg>
