<?xml version="1.0" encoding="UTF-8" standalone="no"?>
<svg
   xmlns:dc="http://purl.org/dc/elements/1.1/"
   xmlns:cc="http://creativecommons.org/ns#"
   xmlns:rdf="http://www.w3.org/1999/02/22-rdf-syntax-ns#"
   xmlns:svg="http://www.w3.org/2000/svg"
   xmlns="http://www.w3.org/2000/svg"
   xmlns:xlink="http://www.w3.org/1999/xlink"
   xmlns:sodipodi="http://sodipodi.sourceforge.net/DTD/sodipodi-0.dtd"
   xmlns:inkscape="http://www.inkscape.org/namespaces/inkscape"
   viewBox="0 0 36 36"
   version="1.1"
   id="svg46"
   sodipodi:docname="transfree.svg"
   inkscape:version="1.0.2-2 (e86c870879, 2021-01-15)"
   inkscape:export-filename="C:\Users\tacos\Documents\random things\twemoji\Letters &amp; Numbers\transfree.png"
   inkscape:export-xdpi="581.33331"
   inkscape:export-ydpi="581.33331">
  <metadata
     id="metadata52">
    <rdf:RDF>
      <cc:Work
         rdf:about="">
        <dc:format>image/svg+xml</dc:format>
        <dc:type
           rdf:resource="http://purl.org/dc/dcmitype/StillImage" />
        <dc:title></dc:title>
      </cc:Work>
    </rdf:RDF>
  </metadata>
  <defs
     id="defs50">
    <pattern
       inkscape:collect="always"
       xlink:href="#pattern4427"
       id="pattern56"
       patternTransform="scale(1,1.0758846)" />
    <pattern
       inkscape:collect="always"
       xlink:href="#pattern2987"
       id="pattern4427"
       patternTransform="scale(1,1.0758846)" />
    <pattern
       inkscape:collect="always"
       xlink:href="#pattern5619"
       id="pattern2987"
       patternTransform="scale(1,1.0758846)" />
    <pattern
       inkscape:collect="always"
       xlink:href="#pattern3795"
       id="pattern5619"
       patternTransform="scale(1,1.0758846)" />
    <pattern
       inkscape:collect="always"
       xlink:href="#pattern3786"
       id="pattern3795"
       patternTransform="scale(1,1.0758846)" />
    <pattern
       patternUnits="userSpaceOnUse"
       width="36.061364"
       height="33.545458"
       id="pattern3786">
      <rect
         style="fill:#55cdfc;fill-opacity:1"
         id="rect3737"
         width="36.061363"
         height="6.7090917"
         x="0"
         y="0" />
      <rect
         style="fill:#f7a8b8;fill-opacity:1"
         id="rect3737-1"
         width="36.061363"
         height="6.7090917"
         x="4.7132923e-07"
         y="6.7090917" />
      <rect
         style="fill:#efefef;fill-opacity:1"
         id="rect3737-7"
         width="36.061363"
         height="6.7090917"
         x="4.7132923e-07"
         y="13.418183" />
      <rect
         style="fill:#f7a8b8;fill-opacity:1"
         id="rect3737-2"
         width="36.061363"
         height="6.7090917"
         x="4.7132923e-07"
         y="20.127275" />
      <rect
         style="fill:#55cdfc;fill-opacity:1"
         id="rect3737-28"
         width="36.061363"
         height="6.7090917"
         x="4.7132923e-07"
         y="26.836367" />
    </pattern>
    <pattern
       patternUnits="userSpaceOnUse"
       width="36.061363"
       height="36.091045"
       patternTransform="translate(0.07768013,0.06283948)"
       id="pattern111">
      <rect
         style="fill:url(#pattern56);stroke:none;stroke-width:1.03725"
         width="36.061363"
         height="36.091045"
         x="0"
         y="0"
         id="rect54" />
    </pattern>
  </defs>
  <sodipodi:namedview
     pagecolor="#ffffff"
     bordercolor="#666666"
     borderopacity="1"
     objecttolerance="10"
     gridtolerance="10"
     guidetolerance="10"
     inkscape:pageopacity="0"
     inkscape:pageshadow="2"
     inkscape:window-width="1837"
     inkscape:window-height="1051"
     id="namedview48"
     showgrid="false"
     inkscape:zoom="17.284832"
     inkscape:cx="16.136039"
     inkscape:cy="20.677326"
     inkscape:window-x="-9"
     inkscape:window-y="-9"
     inkscape:window-maximized="1"
     inkscape:current-layer="svg46" />
  <path
     fill="#3B88C3"
     d="M36 32c0 2.209-1.791 4-4 4H4c-2.209 0-4-1.791-4-4V4c0-2.209 1.791-4 4-4h28c2.209 0 4 1.791 4 4v28z"
     id="path42"
     style="fill:url(#pattern111);fill-opacity:1.0" />
  <path
     d="M1.836 12.585c0-.738.504-1.404 1.405-1.404H7.85c.792 0 1.206.612 1.206 1.242 0 .612-.396 1.243-1.206 1.243H4.538v2.629h2.791c.864 0 1.296.612 1.296 1.224 0 .631-.432 1.261-1.296 1.261H4.538v3.925c0 .9-.576 1.405-1.351 1.405-.774 0-1.351-.505-1.351-1.405v-10.12zm7.992 0c0-.864.486-1.404 1.387-1.404h3.169c2.773 0 4.483 1.242 4.483 4.069 0 1.981-1.495 3.115-3.331 3.403l3.061 3.277c.252.269.36.54.36.792 0 .702-.558 1.387-1.351 1.387-.324 0-.756-.126-1.044-.469l-3.998-4.843h-.036v3.906c0 .9-.576 1.405-1.351 1.405-.774 0-1.351-.505-1.351-1.405V12.585zm2.701 4.267h1.854c.99 0 1.674-.594 1.674-1.603 0-1.026-.684-1.584-1.674-1.584h-1.854v3.187zm6.948-4.105c0-.9.449-1.566 1.404-1.566h4.465c.865 0 1.279.612 1.279 1.242 0 .612-.434 1.243-1.279 1.243h-3.168v2.629h2.952c.882 0 1.313.612 1.313 1.242 0 .612-.449 1.242-1.313 1.242h-2.952v2.737h3.33c.865 0 1.279.611 1.279 1.242 0 .612-.434 1.242-1.279 1.242h-4.644c-.793 0-1.387-.54-1.387-1.351v-9.902zm7.974 0c0-.9.449-1.566 1.404-1.566h4.465c.863 0 1.277.612 1.277 1.242 0 .612-.432 1.243-1.277 1.243h-3.17v2.629h2.953c.883 0 1.314.612 1.314 1.242 0 .612-.449 1.242-1.314 1.242H30.15v2.737h3.332c.863 0 1.277.611 1.277 1.242 0 .612-.432 1.242-1.277 1.242h-4.646c-.791 0-1.385-.54-1.385-1.351v-9.902z"
     fill="#FFF"
     id="path44"
     style="stroke:#f7a8b8;stroke-opacity:1;stroke-width:0.6;stroke-miterlimit:4;stroke-dasharray:none" />
</svg>
