<?xml version="1.0" encoding="UTF-8" standalone="no"?>
<svg
   xmlns:dc="http://purl.org/dc/elements/1.1/"
   xmlns:cc="http://creativecommons.org/ns#"
   xmlns:rdf="http://www.w3.org/1999/02/22-rdf-syntax-ns#"
   xmlns:svg="http://www.w3.org/2000/svg"
   xmlns="http://www.w3.org/2000/svg"
   xmlns:xlink="http://www.w3.org/1999/xlink"
   xmlns:sodipodi="http://sodipodi.sourceforge.net/DTD/sodipodi-0.dtd"
   xmlns:inkscape="http://www.inkscape.org/namespaces/inkscape"
   viewBox="0 0 36 36"
   version="1.1"
   id="svg8158"
   sodipodi:docname="trans100.svg"
   inkscape:version="1.0.2-2 (e86c870879, 2021-01-15)"
   inkscape:export-filename="C:\Users\tacos\Documents\random things\twemoji\Letters &amp; Numbers\trans100.png"
   inkscape:export-xdpi="581.33002"
   inkscape:export-ydpi="581.33002">
  <metadata
     id="metadata8164">
    <rdf:RDF>
      <cc:Work
         rdf:about="">
        <dc:format>image/svg+xml</dc:format>
        <dc:type
           rdf:resource="http://purl.org/dc/dcmitype/StillImage" />
        <dc:title></dc:title>
      </cc:Work>
    </rdf:RDF>
  </metadata>
  <defs
     id="defs8162">
    <pattern
       inkscape:collect="always"
       xlink:href="#pattern8197"
       id="pattern8763"
       patternTransform="rotate(-7.6508772,2.930907,-6.7765001)" />
    <pattern
       inkscape:collect="always"
       xlink:href="#pattern4427"
       id="pattern56"
       patternTransform="scale(1,1.0758846)" />
    <pattern
       inkscape:collect="always"
       xlink:href="#pattern2987"
       id="pattern4427"
       patternTransform="scale(1,1.0758846)" />
    <pattern
       inkscape:collect="always"
       xlink:href="#pattern5619"
       id="pattern2987"
       patternTransform="scale(1,1.0758846)" />
    <pattern
       inkscape:collect="always"
       xlink:href="#pattern3795"
       id="pattern5619"
       patternTransform="scale(1,1.0758846)" />
    <pattern
       inkscape:collect="always"
       xlink:href="#pattern3786"
       id="pattern3795"
       patternTransform="scale(1,1.0758846)" />
    <pattern
       patternUnits="userSpaceOnUse"
       width="36.061364"
       height="33.545458"
       id="pattern3786">
      <rect
         style="fill:#55cdfc;fill-opacity:1"
         id="rect3737"
         width="36.061363"
         height="6.7090917"
         x="0"
         y="0" />
      <rect
         style="fill:#f7a8b8;fill-opacity:1"
         id="rect3737-1"
         width="36.061363"
         height="6.7090917"
         x="4.7132923e-07"
         y="6.7090917" />
      <rect
         style="fill:#efefef;fill-opacity:1"
         id="rect3737-7"
         width="36.061363"
         height="6.7090917"
         x="4.7132923e-07"
         y="13.418183" />
      <rect
         style="fill:#f7a8b8;fill-opacity:1"
         id="rect3737-2"
         width="36.061363"
         height="6.7090917"
         x="4.7132923e-07"
         y="20.127275" />
      <rect
         style="fill:#55cdfc;fill-opacity:1"
         id="rect3737-28"
         width="36.061363"
         height="6.7090917"
         x="4.7132923e-07"
         y="26.836367" />
    </pattern>
    <pattern
       patternUnits="userSpaceOnUse"
       width="36.061363"
       height="36.091045"
       patternTransform="translate(0.00262431,0.0406134)"
       id="pattern8197">
      <rect
         style="fill:url(#pattern56);stroke:none;stroke-width:1.03725"
         width="36.061363"
         height="36.091045"
         x="0"
         y="0"
         id="rect54" />
    </pattern>
  </defs>
  <sodipodi:namedview
     pagecolor="#ffffff"
     bordercolor="#666666"
     borderopacity="1"
     objecttolerance="10"
     gridtolerance="10"
     guidetolerance="10"
     inkscape:pageopacity="0"
     inkscape:pageshadow="2"
     inkscape:window-width="1837"
     inkscape:window-height="1051"
     id="namedview8160"
     showgrid="false"
     inkscape:zoom="17.284832"
     inkscape:cx="17.664197"
     inkscape:cy="18.159389"
     inkscape:window-x="-9"
     inkscape:window-y="-9"
     inkscape:window-maximized="1"
     inkscape:current-layer="svg8158" />
  <path
     fill="#BB1A34"
     d="M 1.728,21 C 1.111,21 0.775,20.744 0.601,20.529 0.43,20.318 0.253,19.944 0.376,19.364 L 3.104,6.658 1.39,6.755 H 1.377 C 0.86,6.755 0.485,6.587 0.25,6.296 0.03,6.024 -0.049,5.675 0.029,5.316 0.179,4.614 0.912,4.03 1.696,3.987 L 5.704,3.76 c 0.078,-0.005 0.15,-0.008 0.217,-0.008 0.147,0 0.536,0 0.783,0.306 0.252,0.312 0.167,0.709 0.139,0.839 L 3.719,19.454 C 3.532,20.338 2.8,20.943 1.853,20.996 Z M 12.471,19 C 11.032,19 9.836,18.461 9.012,17.441 7.849,16.002 7.545,13.79 8.134,11.044 9.166,6.232 12.342,2.858 16.036,2.649 c 1.59,-0.089 2.906,0.452 3.793,1.549 1.163,1.439 1.467,3.651 0.878,6.397 -1.032,4.81 -4.208,8.184 -7.904,8.394 C 12.691,18.997 12.58,19 12.471,19 Z M 15.885,5.254 15.748,5.258 c -1.94,0.111 -3.555,2.304 -4.32,5.866 -0.478,2.228 -0.381,3.899 0.272,4.707 0.297,0.368 0.717,0.555 1.249,0.555 l 0.14,-0.004 c 1.94,-0.109 3.554,-2.301 4.318,-5.864 C 17.885,8.29 17.789,6.618 17.137,5.81 16.841,5.441 16.419,5.254 15.885,5.254 Z m 11.591,12.107 c -1.439,0 -2.637,-0.539 -3.462,-1.56 -1.163,-1.439 -1.467,-3.651 -0.878,-6.397 1.033,-4.813 4.209,-8.186 7.903,-8.394 1.603,-0.09 2.903,0.453 3.79,1.549 1.163,1.439 1.467,3.651 0.878,6.396 -1.031,4.809 -4.206,8.183 -7.902,8.396 -0.112,0.008 -0.221,0.01 -0.329,0.01 z M 30.887,3.614 30.751,3.618 c -1.941,0.111 -3.556,2.304 -4.32,5.865 -0.478,2.229 -0.381,3.901 0.272,4.708 0.297,0.368 0.719,0.555 1.251,0.555 l 0.14,-0.004 C 30.033,14.633 31.648,12.44 32.412,8.878 32.891,6.651 32.795,4.979 32.142,4.171 31.844,3.801 31.422,3.614 30.887,3.614 Z M 11,35.001 c -0.81,0 -1.572,-0.496 -1.873,-1.299 -0.388,-1.034 0.136,-2.187 1.17,-2.575 0.337,-0.126 8.399,-3.108 20.536,-4.12 1.101,-0.096 2.067,0.727 2.159,1.827 0.092,1.101 -0.727,2.067 -1.827,2.159 -11.59,0.966 -19.386,3.851 -19.464,3.88 -0.23,0.086 -0.468,0.128 -0.701,0.128 z M 2.001,29 c -0.804,0 -1.563,-0.488 -1.868,-1.283 -0.396,-1.031 0.118,-2.188 1.149,-2.583 0.542,-0.209 13.516,-5.126 32.612,-6.131 1.113,-0.069 2.045,0.789 2.103,1.892 0.059,1.103 -0.789,2.045 -1.892,2.103 C 15.682,23.968 2.844,28.819 2.716,28.868 2.481,28.957 2.239,29 2.001,29 Z"
     id="path8156"
     style="fill:url(#pattern8763);fill-opacity:1" />
</svg>
