<?xml version="1.0" encoding="UTF-8" standalone="no"?>
<svg
   xmlns:dc="http://purl.org/dc/elements/1.1/"
   xmlns:cc="http://creativecommons.org/ns#"
   xmlns:rdf="http://www.w3.org/1999/02/22-rdf-syntax-ns#"
   xmlns:svg="http://www.w3.org/2000/svg"
   xmlns="http://www.w3.org/2000/svg"
   xmlns:xlink="http://www.w3.org/1999/xlink"
   xmlns:sodipodi="http://sodipodi.sourceforge.net/DTD/sodipodi-0.dtd"
   xmlns:inkscape="http://www.inkscape.org/namespaces/inkscape"
   viewBox="0 0 36 36"
   version="1.1"
   id="svg3784"
   sodipodi:docname="transNEW.svg"
   inkscape:version="1.0.2-2 (e86c870879, 2021-01-15)"
   inkscape:export-filename="C:\Users\tacos\Documents\random things\twemoji\Letters &amp; Numbers\transNEW.png"
   inkscape:export-xdpi="581.33002"
   inkscape:export-ydpi="581.33002">
  <metadata
     id="metadata3790">
    <rdf:RDF>
      <cc:Work
         rdf:about="">
        <dc:format>image/svg+xml</dc:format>
        <dc:type
           rdf:resource="http://purl.org/dc/dcmitype/StillImage" />
        <dc:title></dc:title>
      </cc:Work>
    </rdf:RDF>
  </metadata>
  <defs
     id="defs3788">
    <pattern
       inkscape:collect="always"
       xlink:href="#pattern4427"
       id="pattern56"
       patternTransform="scale(1,1.0758846)" />
    <pattern
       inkscape:collect="always"
       xlink:href="#pattern2987"
       id="pattern4427"
       patternTransform="scale(1,1.0758846)" />
    <pattern
       inkscape:collect="always"
       xlink:href="#pattern5619"
       id="pattern2987"
       patternTransform="scale(1,1.0758846)" />
    <pattern
       inkscape:collect="always"
       xlink:href="#pattern3795"
       id="pattern5619"
       patternTransform="scale(1,1.0758846)" />
    <pattern
       inkscape:collect="always"
       xlink:href="#pattern3786"
       id="pattern3795"
       patternTransform="scale(1,1.0758846)" />
    <pattern
       patternUnits="userSpaceOnUse"
       width="36.061364"
       height="33.545458"
       id="pattern3786">
      <rect
         style="fill:#55cdfc;fill-opacity:1"
         id="rect3737"
         width="36.061363"
         height="6.7090917"
         x="0"
         y="0" />
      <rect
         style="fill:#f7a8b8;fill-opacity:1"
         id="rect3737-1"
         width="36.061363"
         height="6.7090917"
         x="4.7132923e-07"
         y="6.7090917" />
      <rect
         style="fill:#efefef;fill-opacity:1"
         id="rect3737-7"
         width="36.061363"
         height="6.7090917"
         x="4.7132923e-07"
         y="13.418183" />
      <rect
         style="fill:#f7a8b8;fill-opacity:1"
         id="rect3737-2"
         width="36.061363"
         height="6.7090917"
         x="4.7132923e-07"
         y="20.127275" />
      <rect
         style="fill:#55cdfc;fill-opacity:1"
         id="rect3737-28"
         width="36.061363"
         height="6.7090917"
         x="4.7132923e-07"
         y="26.836367" />
    </pattern>
    <pattern
       patternUnits="userSpaceOnUse"
       width="36.061363"
       height="36.091045"
       patternTransform="translate(0.01982591,0.06283912)"
       id="pattern3823">
      <rect
         style="fill:url(#pattern56);stroke:none;stroke-width:1.03725"
         width="36.061363"
         height="36.091045"
         x="0"
         y="0"
         id="rect54" />
    </pattern>
  </defs>
  <sodipodi:namedview
     pagecolor="#ffffff"
     bordercolor="#666666"
     borderopacity="1"
     objecttolerance="10"
     gridtolerance="10"
     guidetolerance="10"
     inkscape:pageopacity="0"
     inkscape:pageshadow="2"
     inkscape:window-width="1837"
     inkscape:window-height="1051"
     id="namedview3786"
     showgrid="false"
     inkscape:zoom="17.284832"
     inkscape:cx="15.763247"
     inkscape:cy="15.881862"
     inkscape:window-x="-9"
     inkscape:window-y="-9"
     inkscape:window-maximized="1"
     inkscape:current-layer="svg3784" />
  <path
     fill="#3B88C3"
     d="M36 32c0 2.209-1.791 4-4 4H4c-2.209 0-4-1.791-4-4V4c0-2.209 1.791-4 4-4h28c2.209 0 4 1.791 4 4v28z"
     id="path3780"
     style="fill:url(#pattern3823);fill-opacity:1.0" />
  <path
     d="M1.527 13.121c0-.85.544-1.326 1.275-1.326.323 0 .85.255 1.071.561l5.388 7.191h.034v-6.426c0-.85.544-1.326 1.275-1.326.731 0 1.275.476 1.275 1.326v9.655c0 .85-.544 1.325-1.275 1.325-.323 0-.833-.255-1.071-.561L4.11 16.434h-.033v6.341c0 .85-.544 1.325-1.275 1.325-.731 0-1.275-.476-1.275-1.325v-9.654zm11.067.255c0-.85.425-1.479 1.326-1.479h4.215c.816 0 1.207.578 1.207 1.173 0 .578-.407 1.173-1.207 1.173h-2.992v2.481h2.788c.833 0 1.24.578 1.24 1.173 0 .578-.424 1.173-1.24 1.173h-2.788v2.584h3.145c.816 0 1.206.578 1.206 1.173 0 .578-.407 1.173-1.206 1.173h-4.386c-.748 0-1.309-.51-1.309-1.274v-9.35zm7.31.119c-.051-.221-.068-.34-.068-.578 0-.544.459-1.122 1.207-1.122.816 0 1.207.476 1.359 1.224l1.445 7.224h.034l2.21-7.445c.188-.612.697-1.003 1.326-1.003.629 0 1.139.391 1.326 1.003l2.209 7.445h.033l1.445-7.224c.152-.748.545-1.224 1.359-1.224.748 0 1.207.578 1.207 1.122 0 .238-.016.357-.068.578l-2.158 9.281c-.17.714-.73 1.325-1.682 1.325-.834 0-1.48-.544-1.684-1.24l-1.97-6.561H27.4l-1.972 6.561c-.204.696-.851 1.24-1.683 1.24-.952 0-1.514-.611-1.684-1.325l-2.157-9.281z"
     fill="#FFF"
     id="path3782"
     style="stroke-width:0.7;stroke-miterlimit:4;stroke-dasharray:none;stroke:#f7a8b8;stroke-opacity:1" />
</svg>
