<?xml version="1.0" encoding="UTF-8" standalone="no"?>
<svg
   xmlns:dc="http://purl.org/dc/elements/1.1/"
   xmlns:cc="http://creativecommons.org/ns#"
   xmlns:rdf="http://www.w3.org/1999/02/22-rdf-syntax-ns#"
   xmlns:svg="http://www.w3.org/2000/svg"
   xmlns="http://www.w3.org/2000/svg"
   xmlns:xlink="http://www.w3.org/1999/xlink"
   xmlns:sodipodi="http://sodipodi.sourceforge.net/DTD/sodipodi-0.dtd"
   xmlns:inkscape="http://www.inkscape.org/namespaces/inkscape"
   viewBox="0 0 36 36"
   version="1.1"
   id="svg9418"
   sodipodi:docname="trans8.svg"
   inkscape:version="1.0.2-2 (e86c870879, 2021-01-15)"
   inkscape:export-filename="C:\Users\tacos\Documents\random things\twemoji\Letters &amp; Numbers\trans8.png"
   inkscape:export-xdpi="581.33002"
   inkscape:export-ydpi="581.33002">
  <metadata
     id="metadata9424">
    <rdf:RDF>
      <cc:Work
         rdf:about="">
        <dc:format>image/svg+xml</dc:format>
        <dc:type
           rdf:resource="http://purl.org/dc/dcmitype/StillImage" />
        <dc:title></dc:title>
      </cc:Work>
    </rdf:RDF>
  </metadata>
  <defs
     id="defs9422">
    <pattern
       inkscape:collect="always"
       xlink:href="#pattern2987"
       id="pattern4427"
       patternTransform="scale(1,1.0758846)" />
    <pattern
       inkscape:collect="always"
       xlink:href="#pattern5619"
       id="pattern2987"
       patternTransform="scale(1,1.0758846)" />
    <pattern
       inkscape:collect="always"
       xlink:href="#pattern3795"
       id="pattern5619"
       patternTransform="scale(1,1.0758846)" />
    <pattern
       inkscape:collect="always"
       xlink:href="#pattern3786"
       id="pattern3795"
       patternTransform="scale(1,1.0758846)" />
    <pattern
       patternUnits="userSpaceOnUse"
       width="36.061364"
       height="33.545458"
       id="pattern3786">
      <rect
         style="fill:#55cdfc;fill-opacity:1"
         id="rect3737"
         width="36.061363"
         height="6.7090917"
         x="0"
         y="0" />
      <rect
         style="fill:#f7a8b8;fill-opacity:1"
         id="rect3737-1"
         width="36.061363"
         height="6.7090917"
         x="4.7132923e-07"
         y="6.7090917" />
      <rect
         style="fill:#efefef;fill-opacity:1"
         id="rect3737-7"
         width="36.061363"
         height="6.7090917"
         x="4.7132923e-07"
         y="13.418183" />
      <rect
         style="fill:#f7a8b8;fill-opacity:1"
         id="rect3737-2"
         width="36.061363"
         height="6.7090917"
         x="4.7132923e-07"
         y="20.127275" />
      <rect
         style="fill:#55cdfc;fill-opacity:1"
         id="rect3737-28"
         width="36.061363"
         height="6.7090917"
         x="4.7132923e-07"
         y="26.836367" />
    </pattern>
    <pattern
       patternUnits="userSpaceOnUse"
       width="36.061363"
       height="36.091045"
       patternTransform="translate(0.25124303,-0.05286924)"
       id="pattern9455">
      <rect
         style="fill:url(#pattern4427);stroke:none;stroke-width:1.03725"
         width="36.061363"
         height="36.091045"
         x="0"
         y="0"
         id="rect4425" />
    </pattern>
  </defs>
  <sodipodi:namedview
     pagecolor="#ffffff"
     bordercolor="#666666"
     borderopacity="1"
     objecttolerance="10"
     gridtolerance="10"
     guidetolerance="10"
     inkscape:pageopacity="0"
     inkscape:pageshadow="2"
     inkscape:window-width="1837"
     inkscape:window-height="1051"
     id="namedview9420"
     showgrid="false"
     inkscape:zoom="17.284832"
     inkscape:cx="13.492603"
     inkscape:cy="19.931741"
     inkscape:window-x="-9"
     inkscape:window-y="-9"
     inkscape:window-maximized="1"
     inkscape:current-layer="svg9418" />
  <path
     fill="#3B88C3"
     d="M36 32c0 2.209-1.791 4-4 4H4c-2.209 0-4-1.791-4-4V4c0-2.209 1.791-4 4-4h28c2.209 0 4 1.791 4 4v28z"
     id="path9414"
     style="fill:url(#pattern9455);fill-opacity:1.0" />
  <path
     fill="#FFF"
     d="M10.343 22.303c0-2.48 1.364-4.309 3.317-5.364-1.457-1.054-2.356-2.48-2.356-4.434 0-3.628 3.008-5.953 6.697-5.953 3.596 0 6.729 2.294 6.729 5.953 0 1.736-.869 3.473-2.389 4.434 2.109 1.055 3.318 2.977 3.318 5.364 0 4.31-3.504 7.069-7.659 7.069-4.277 0-7.657-2.915-7.657-7.069zm4.837-.311c0 1.582.93 3.102 2.821 3.102 1.768 0 2.822-1.52 2.822-3.102 0-1.953-1.116-3.1-2.822-3.1-1.797 0-2.821 1.364-2.821 3.1zm.589-8.991c0 1.395.807 2.356 2.232 2.356 1.426 0 2.264-.961 2.264-2.356 0-1.333-.807-2.357-2.264-2.357-1.457 0-2.232 1.024-2.232 2.357z"
     id="path9416"
     style="stroke:#f7a8b8;stroke-opacity:1" />
</svg>
