<?xml version="1.0" encoding="UTF-8" standalone="no"?>
<svg
   xmlns:dc="http://purl.org/dc/elements/1.1/"
   xmlns:cc="http://creativecommons.org/ns#"
   xmlns:rdf="http://www.w3.org/1999/02/22-rdf-syntax-ns#"
   xmlns:svg="http://www.w3.org/2000/svg"
   xmlns="http://www.w3.org/2000/svg"
   xmlns:xlink="http://www.w3.org/1999/xlink"
   xmlns:sodipodi="http://sodipodi.sourceforge.net/DTD/sodipodi-0.dtd"
   xmlns:inkscape="http://www.inkscape.org/namespaces/inkscape"
   viewBox="0 0 36 36"
   version="1.1"
   id="svg8799"
   sodipodi:docname="trans7.svg"
   inkscape:version="1.0.2-2 (e86c870879, 2021-01-15)"
   inkscape:export-filename="C:\Users\tacos\Documents\random things\twemoji\Letters &amp; Numbers\trans7.png"
   inkscape:export-xdpi="581.33002"
   inkscape:export-ydpi="581.33002">
  <metadata
     id="metadata8805">
    <rdf:RDF>
      <cc:Work
         rdf:about="">
        <dc:format>image/svg+xml</dc:format>
        <dc:type
           rdf:resource="http://purl.org/dc/dcmitype/StillImage" />
        <dc:title></dc:title>
      </cc:Work>
    </rdf:RDF>
  </metadata>
  <defs
     id="defs8803">
    <pattern
       inkscape:collect="always"
       xlink:href="#pattern2987"
       id="pattern4427"
       patternTransform="scale(1,1.0758846)" />
    <pattern
       inkscape:collect="always"
       xlink:href="#pattern5619"
       id="pattern2987"
       patternTransform="scale(1,1.0758846)" />
    <pattern
       inkscape:collect="always"
       xlink:href="#pattern3795"
       id="pattern5619"
       patternTransform="scale(1,1.0758846)" />
    <pattern
       inkscape:collect="always"
       xlink:href="#pattern3786"
       id="pattern3795"
       patternTransform="scale(1,1.0758846)" />
    <pattern
       patternUnits="userSpaceOnUse"
       width="36.061364"
       height="33.545458"
       id="pattern3786">
      <rect
         style="fill:#55cdfc;fill-opacity:1"
         id="rect3737"
         width="36.061363"
         height="6.7090917"
         x="0"
         y="0" />
      <rect
         style="fill:#f7a8b8;fill-opacity:1"
         id="rect3737-1"
         width="36.061363"
         height="6.7090917"
         x="4.7132923e-07"
         y="6.7090917" />
      <rect
         style="fill:#efefef;fill-opacity:1"
         id="rect3737-7"
         width="36.061363"
         height="6.7090917"
         x="4.7132923e-07"
         y="13.418183" />
      <rect
         style="fill:#f7a8b8;fill-opacity:1"
         id="rect3737-2"
         width="36.061363"
         height="6.7090917"
         x="4.7132923e-07"
         y="20.127275" />
      <rect
         style="fill:#55cdfc;fill-opacity:1"
         id="rect3737-28"
         width="36.061363"
         height="6.7090917"
         x="4.7132923e-07"
         y="26.836367" />
    </pattern>
    <pattern
       patternUnits="userSpaceOnUse"
       width="36.061363"
       height="36.091045"
       patternTransform="translate(-0.03802841,0.0628392)"
       id="pattern8836">
      <rect
         style="fill:url(#pattern4427);stroke:none;stroke-width:1.03725"
         width="36.061363"
         height="36.091045"
         x="0"
         y="0"
         id="rect4425" />
    </pattern>
  </defs>
  <sodipodi:namedview
     pagecolor="#ffffff"
     bordercolor="#666666"
     borderopacity="1"
     objecttolerance="10"
     gridtolerance="10"
     guidetolerance="10"
     inkscape:pageopacity="0"
     inkscape:pageshadow="2"
     inkscape:window-width="1837"
     inkscape:window-height="1051"
     id="namedview8801"
     showgrid="false"
     inkscape:zoom="17.284832"
     inkscape:cx="16.2716"
     inkscape:cy="21.067063"
     inkscape:window-x="-9"
     inkscape:window-y="-9"
     inkscape:window-maximized="1"
     inkscape:current-layer="svg8799" />
  <path
     fill="#3B88C3"
     d="M36 32c0 2.209-1.791 4-4 4H4c-2.209 0-4-1.791-4-4V4c0-2.209 1.791-4 4-4h28c2.209 0 4 1.791 4 4v28z"
     id="path8795"
     style="fill:url(#pattern8836);fill-opacity:1.0" />
  <path
     fill="#FFF"
     d="M20.357 11.203H12.42c-1.674 0-2.294-1.085-2.294-2.139 0-1.085.589-2.14 2.294-2.14h11.224c1.582 0 2.233 1.426 2.233 2.232 0 .62-.341 1.271-.713 2.046l-7.69 15.627c-.868 1.736-1.209 2.355-2.604 2.355-1.705 0-2.574-1.302-2.574-2.201 0-.372.093-.65.311-1.085l7.75-14.695z"
     id="path8797"
     style="stroke:#f7a8b8;stroke-opacity:1" />
</svg>
