<?xml version="1.0" encoding="UTF-8" standalone="no"?>
<svg
   xmlns:dc="http://purl.org/dc/elements/1.1/"
   xmlns:cc="http://creativecommons.org/ns#"
   xmlns:rdf="http://www.w3.org/1999/02/22-rdf-syntax-ns#"
   xmlns:svg="http://www.w3.org/2000/svg"
   xmlns="http://www.w3.org/2000/svg"
   xmlns:xlink="http://www.w3.org/1999/xlink"
   xmlns:sodipodi="http://sodipodi.sourceforge.net/DTD/sodipodi-0.dtd"
   xmlns:inkscape="http://www.inkscape.org/namespaces/inkscape"
   viewBox="0 0 36 36"
   version="1.1"
   id="svg6323"
   sodipodi:docname="trans3.svg"
   inkscape:version="1.0.2-2 (e86c870879, 2021-01-15)"
   inkscape:export-filename="C:\Users\tacos\Documents\random things\twemoji\Letters &amp; Numbers\trans3.png"
   inkscape:export-xdpi="581.33002"
   inkscape:export-ydpi="581.33002">
  <metadata
     id="metadata6329">
    <rdf:RDF>
      <cc:Work
         rdf:about="">
        <dc:format>image/svg+xml</dc:format>
        <dc:type
           rdf:resource="http://purl.org/dc/dcmitype/StillImage" />
        <dc:title></dc:title>
      </cc:Work>
    </rdf:RDF>
  </metadata>
  <defs
     id="defs6327">
    <pattern
       inkscape:collect="always"
       xlink:href="#pattern2987"
       id="pattern4427"
       patternTransform="scale(1,1.0758846)" />
    <pattern
       inkscape:collect="always"
       xlink:href="#pattern5619"
       id="pattern2987"
       patternTransform="scale(1,1.0758846)" />
    <pattern
       inkscape:collect="always"
       xlink:href="#pattern3795"
       id="pattern5619"
       patternTransform="scale(1,1.0758846)" />
    <pattern
       inkscape:collect="always"
       xlink:href="#pattern3786"
       id="pattern3795"
       patternTransform="scale(1,1.0758846)" />
    <pattern
       patternUnits="userSpaceOnUse"
       width="36.061364"
       height="33.545458"
       id="pattern3786">
      <rect
         style="fill:#55cdfc;fill-opacity:1"
         id="rect3737"
         width="36.061363"
         height="6.7090917"
         x="0"
         y="0" />
      <rect
         style="fill:#f7a8b8;fill-opacity:1"
         id="rect3737-1"
         width="36.061363"
         height="6.7090917"
         x="4.7132923e-07"
         y="6.7090917" />
      <rect
         style="fill:#efefef;fill-opacity:1"
         id="rect3737-7"
         width="36.061363"
         height="6.7090917"
         x="4.7132923e-07"
         y="13.418183" />
      <rect
         style="fill:#f7a8b8;fill-opacity:1"
         id="rect3737-2"
         width="36.061363"
         height="6.7090917"
         x="4.7132923e-07"
         y="20.127275" />
      <rect
         style="fill:#55cdfc;fill-opacity:1"
         id="rect3737-28"
         width="36.061363"
         height="6.7090917"
         x="4.7132923e-07"
         y="26.836367" />
    </pattern>
    <pattern
       patternUnits="userSpaceOnUse"
       width="36.061363"
       height="36.091045"
       patternTransform="translate(0.01982595,0.06283922)"
       id="pattern6360">
      <rect
         style="fill:url(#pattern4427);stroke:none;stroke-width:1.03725"
         width="36.061363"
         height="36.091045"
         x="0"
         y="0"
         id="rect4425" />
    </pattern>
  </defs>
  <sodipodi:namedview
     pagecolor="#ffffff"
     bordercolor="#666666"
     borderopacity="1"
     objecttolerance="10"
     gridtolerance="10"
     guidetolerance="10"
     inkscape:pageopacity="0"
     inkscape:pageshadow="2"
     inkscape:window-width="1837"
     inkscape:window-height="1051"
     id="namedview6325"
     showgrid="false"
     inkscape:zoom="17.284832"
     inkscape:cx="13.678999"
     inkscape:cy="16.779953"
     inkscape:window-x="-9"
     inkscape:window-y="-9"
     inkscape:window-maximized="1"
     inkscape:current-layer="svg6323" />
  <path
     fill="#3B88C3"
     d="M36 32c0 2.209-1.791 4-4 4H4c-2.209 0-4-1.791-4-4V4c0-2.209 1.791-4 4-4h28c2.209 0 4 1.791 4 4v28z"
     id="path6319"
     style="fill:url(#pattern6360);fill-opacity:1.0" />
  <path
     fill="#FFF"
     d="M24.109 12.226c0 1.954-.836 3.659-2.542 4.744 2.232 1.024 3.782 3.101 3.782 5.55 0 3.721-3.41 6.853-7.813 6.853-4.589 0-7.441-3.38-7.441-5.829 0-1.209 1.272-2.077 2.388-2.077 2.108 0 1.612 3.628 5.116 3.628 1.612 0 2.915-1.24 2.915-2.884 0-4.341-5.272-1.147-5.272-4.806 0-3.255 4.402-1.054 4.402-4.496 0-1.179-.836-2.078-2.232-2.078-2.945 0-2.542 3.038-4.651 3.038-1.271 0-2.015-1.147-2.015-2.294 0-2.418 3.317-5.023 6.759-5.023 4.466 0 6.604 3.256 6.604 5.674z"
     id="path6321"
     style="stroke:#f7a8b8;stroke-opacity:1" />
</svg>
