<?xml version="1.0" encoding="UTF-8" standalone="no"?>
<svg
   xmlns:dc="http://purl.org/dc/elements/1.1/"
   xmlns:cc="http://creativecommons.org/ns#"
   xmlns:rdf="http://www.w3.org/1999/02/22-rdf-syntax-ns#"
   xmlns:svg="http://www.w3.org/2000/svg"
   xmlns="http://www.w3.org/2000/svg"
   xmlns:xlink="http://www.w3.org/1999/xlink"
   xmlns:sodipodi="http://sodipodi.sourceforge.net/DTD/sodipodi-0.dtd"
   xmlns:inkscape="http://www.inkscape.org/namespaces/inkscape"
   viewBox="0 0 36 36"
   version="1.1"
   id="svg6153"
   sodipodi:docname="transTaco.svg"
   inkscape:version="1.0.2-2 (e86c870879, 2021-01-15)"
   inkscape:export-filename="C:\Users\tacos\Documents\random things\twemoji\transmoji\transmoji\Food\transTaco.png"
   inkscape:export-xdpi="581.33325"
   inkscape:export-ydpi="581.33325">
  <metadata
     id="metadata6159">
    <rdf:RDF>
      <cc:Work
         rdf:about="">
        <dc:format>image/svg+xml</dc:format>
        <dc:type
           rdf:resource="http://purl.org/dc/dcmitype/StillImage" />
        <dc:title></dc:title>
      </cc:Work>
    </rdf:RDF>
  </metadata>
  <defs
     id="defs6157">
    <pattern
       inkscape:collect="always"
       xlink:href="#pattern6807"
       id="pattern6836"
       patternTransform="matrix(0.99844874,0,0,0.61818908,0.02049003,6.90996)" />
    <pattern
       inkscape:collect="always"
       xlink:href="#pattern6807"
       id="pattern6834"
       patternTransform="matrix(1.0014285,0,0,0.61871361,0.00160706,6.8946929)" />
    <pattern
       inkscape:collect="always"
       xlink:href="#pattern6807"
       id="pattern6832"
       patternTransform="matrix(1.0011384,0,0,0.61119167,0.06629126,7.1192796)" />
    <pattern
       inkscape:collect="always"
       xlink:href="#pattern6201"
       id="pattern6830"
       patternTransform="matrix(1.0008035,0,0,0.61430543,0.01446355,6.9714301)" />
    <pattern
       inkscape:collect="always"
       xlink:href="#pattern6201"
       id="pattern6828"
       patternTransform="matrix(1.0004018,0,0,0.61470719,0.01446355,6.9714301)" />
    <pattern
       inkscape:collect="always"
       xlink:href="#pattern6201"
       id="pattern6826"
       patternTransform="matrix(1,0,0,0.61430543,0.02892709,6.9858935)" />
    <pattern
       inkscape:collect="always"
       xlink:href="#pattern4438"
       id="pattern6805" />
    <pattern
       inkscape:collect="always"
       xlink:href="#pattern4393"
       id="pattern6199"
       patternTransform="translate(0,35.999999)" />
    <pattern
       patternUnits="userSpaceOnUse"
       width="35.999998"
       height="36.000003"
       patternTransform="translate(0,35.999999)"
       id="pattern4393">
      <rect
         style="fill:#55cdfc;fill-opacity:1;stroke:none;stroke-width:0.839365"
         id="rect4255-4"
         width="35.999996"
         height="7.1999998"
         x="0"
         y="0" />
      <rect
         style="fill:#f7a8b8;fill-opacity:1;stroke:none;stroke-width:0.839365"
         id="rect4255-5-0"
         width="35.999996"
         height="7.1999998"
         x="0"
         y="7.1999989" />
      <rect
         style="fill:#efefef;fill-opacity:1;stroke:none;stroke-width:0.839365"
         id="rect4255-8-2"
         width="35.999996"
         height="7.1999998"
         x="2.7033288e-06"
         y="14.399998" />
      <rect
         style="fill:#f7a8b8;fill-opacity:1;stroke:none;stroke-width:0.839365"
         id="rect4255-2-4"
         width="35.999996"
         height="7.1999998"
         x="0"
         y="21.6" />
      <rect
         style="fill:#55cdfc;fill-opacity:1;stroke:none;stroke-width:0.839365"
         id="rect4255-9-1"
         width="35.999996"
         height="7.1999998"
         x="0"
         y="28.800003" />
    </pattern>
    <pattern
       patternUnits="userSpaceOnUse"
       width="35.999996"
       height="36.000004"
       id="pattern6201">
      <rect
         style="fill:url(#pattern6199);stroke:none"
         width="35.999996"
         height="36.000004"
         x="0"
         y="0"
         id="rect4400" />
    </pattern>
    <pattern
       patternUnits="userSpaceOnUse"
       width="35.999999"
       height="35.999996"
       patternTransform="translate(36.000003,35.999999)"
       id="pattern4438">
      <rect
         style="fill:#3cb4e3;fill-opacity:1;stroke:none;stroke-width:0.839365"
         id="rect4255-3-1"
         width="35.999996"
         height="7.1999998"
         x="0"
         y="0" />
      <rect
         style="fill:#de8f9f;fill-opacity:1;stroke:none;stroke-width:0.839365"
         id="rect4255-5-2-9"
         width="35.999996"
         height="7.1999998"
         x="0"
         y="7.1999989" />
      <rect
         style="fill:#d6d6d6;fill-opacity:1;stroke:none;stroke-width:0.839365"
         id="rect4255-8-0-9"
         width="35.999996"
         height="7.1999998"
         x="3.6044385e-06"
         y="14.399998" />
      <rect
         style="fill:#de8f9f;fill-opacity:1;stroke:none;stroke-width:0.839365"
         id="rect4255-2-1-7"
         width="35.999996"
         height="7.1999998"
         x="0"
         y="21.6" />
      <rect
         style="fill:#3cb4e3;fill-opacity:1;stroke:none;stroke-width:0.839365"
         id="rect4255-9-5-8"
         width="35.999996"
         height="7.1999998"
         x="0"
         y="28.799995" />
    </pattern>
    <pattern
       patternUnits="userSpaceOnUse"
       width="36"
       height="35.999996"
       id="pattern6807">
      <rect
         style="fill:url(#pattern6805);stroke:none"
         width="36"
         height="35.999996"
         x="0"
         y="0"
         id="rect4445" />
    </pattern>
  </defs>
  <sodipodi:namedview
     pagecolor="#ffffff"
     bordercolor="#666666"
     borderopacity="1"
     objecttolerance="10"
     gridtolerance="10"
     guidetolerance="10"
     inkscape:pageopacity="0"
     inkscape:pageshadow="2"
     inkscape:window-width="1837"
     inkscape:window-height="1051"
     id="namedview6155"
     showgrid="false"
     inkscape:zoom="22.627417"
     inkscape:cx="12.716825"
     inkscape:cy="18.547434"
     inkscape:window-x="-9"
     inkscape:window-y="-9"
     inkscape:window-maximized="1"
     inkscape:current-layer="svg6153" />
  <path
     fill="#FFE8B6"
     d="M 12,7 C 5.374,7 0,14.164 0,23 h 6 v 6 H 23.119 C 23.683,27.146 24,25.123 24,23 24,14.164 18.627,7 12,7 Z"
     id="path6047"
     style="fill:url(#pattern6830);fill-opacity:1" />
  <path
     fill="#FFE8B6"
     d="m 29,21 h 4.896 C 33.156,13.11 28.118,7 22,7 15.373,7 10,14.164 10,23 c 0,2.123 0.317,4.146 0.88,6 H 29 Z"
     id="path6049"
     style="fill:url(#pattern6828);fill-opacity:1" />
  <path
     fill="#FFAC33"
     d="M 36,23 C 36,14.164 30.627,7 24,7 17.374,7 12,14.164 12,23 c 0,2.123 0.317,4.146 0.88,6 H 30 c 3.314,0 6,-2.685 6,-6 z"
     id="path6051"
     style="fill:url(#pattern6836);fill-opacity:1" />
  <path
     fill="#FFAC33"
     d="m 6,23 h 10 v 6 H 6 Z"
     id="path6053"
     style="fill:url(#pattern6832);fill-opacity:1" />
  <path
     fill="#FFE8B6"
     d="m 0,23 c 0,-3.312 2.687,-6 6,-6 3.313,0 6,2.687 6,6 0,3.315 -2.687,6 -6,6 -3.313,0 -6,-2.685 -6,-6 z"
     id="path6055"
     style="fill:url(#pattern6826);fill-opacity:1" />
  <path
     fill="#FFAC33"
     d="M 14,7 C 7.374,7 2,14.164 2,23 c 0,2.21 1.791,4 4,4 2.209,0 4,-1.79 4,-4 C 10,16.037 13.342,10.129 18,7.931 16.747,7.339 15.405,7 14,7 Z"
     id="path6057"
     style="fill:url(#pattern6834);fill-opacity:1" />
  <circle
     fill="#D99E82"
     cx="4"
     cy="23"
     r="1"
     id="circle6059"
     style="fill:#38b1de;fill-opacity:1" />
  <path
     fill="#C1694F"
     d="M9.975 23.25C9.855 22.541 9.243 22 8.5 22c-.18 0-.35.037-.51.095.002-.033.01-.063.01-.095 0-1.104-.896-2-2-2s-2 .896-2 2c0 .525.207 1 .539 1.357-.327.276-.539.682-.539 1.143 0 .678.453 1.244 1.07 1.43.167.557.651.962 1.241 1.039 1.978-.156 3.54-1.733 3.664-3.719z"
     id="path6061"
     style="fill:#269ecc;fill-opacity:1" />
  <path
     fill="#D99E82"
     d="M9.5 21c-.828 0-1.5.672-1.5 1.5S8.672 24 9.5 24c.13 0 .254-.021.375-.053.075-.305.125-.619.125-.947 0-.637.037-1.261.091-1.878C9.91 21.044 9.711 21 9.5 21z"
     id="path6063"
     style="fill:#38b1de;fill-opacity:1" />
  <ellipse
     fill="#FFCC4D"
     cx="6.5"
     cy="20"
     rx="1.5"
     ry="1"
     id="ellipse6065"
     style="fill:#cf8393;fill-opacity:1" />
  <circle
     fill="#FFCC4D"
     cx="7"
     cy="21"
     r="1"
     id="circle6067"
     style="fill:#cf8393;fill-opacity:1" />
  <circle
     fill="#C1694F"
     cx="9"
     cy="21"
     r="1"
     id="circle6069"
     style="fill:#38b1de;fill-opacity:1" />
  <circle
     fill="#D99E82"
     cx="5"
     cy="22"
     r="1"
     id="circle6071"
     style="fill:#38b1de;fill-opacity:1" />
  <circle
     fill="#D99E82"
     cx="7"
     cy="22"
     r="1"
     id="circle6073"
     style="fill:#38b1de;fill-opacity:1" />
  <circle
     fill="#FFD983"
     cx="8"
     cy="20"
     r="1"
     id="circle6075"
     style="fill:#e999a9;fill-opacity:1" />
  <circle
     fill="#FFE8B6"
     cx="7"
     cy="18"
     r="1"
     id="circle6077"
     style="fill:#ffb0c0;fill-opacity:1" />
  <circle
     fill="#FFE8B6"
     cx="6"
     cy="20"
     r="1"
     id="circle6079"
     style="fill:#ffb0c0;fill-opacity:1" />
  <circle
     fill="#FFD983"
     cx="9"
     cy="18"
     r="1"
     id="circle6081"
     style="fill:#e999a9;fill-opacity:1" />
  <circle
     fill="#FFD983"
     cx="9"
     cy="20"
     r="1"
     id="circle6083"
     style="fill:#e999a9;fill-opacity:1" />
  <circle
     fill="#FFD983"
     cx="9"
     cy="19"
     r="1"
     id="circle6085" />
  <circle
     fill="#FFE8B6"
     cx="9"
     cy="19"
     r="1"
     id="circle6087"
     style="fill:#ffb0c0;fill-opacity:1" />
  <path
     fill="#77B255"
     d="M10.572 12.453C10.3 12.174 9.921 12 9.5 12c-.738 0-1.348.533-1.473 1.235-.215-.139-.478-.235-.777-.235-.69 0-1.25.448-1.25 1 0 .19.084.358.2.51-.123.146-.2.311-.2.49-.552 0-1 .448-1 1 0 .202.075.379.178.537-.11.139-.178.295-.178.463 0 .552.671 1 1.5 1 .43 0 .815-.122 1.089-.316.254.195.567.316.911.316.198 0 .385-.041.558-.11.163.602.69 1.042 1.331 1.091.495-2.544 1.45-4.835 2.738-6.72C12.806 12.097 12.419 12 12 12c-.56 0-1.065.174-1.428.453z"
     id="path6089"
     style="fill:#bebebe;fill-opacity:1" />
  <circle
     fill="#A6D388"
     cx="8"
     cy="15"
     r="1"
     id="circle6091"
     style="fill:#dcdcdc;fill-opacity:1" />
  <path
     fill="#A6D388"
     d="M10 13.5c0 .276-.224.5-.5.5s-.5-.223-.5-.5c0-.276.224-.5.5-.5s.5.224.5.5z"
     id="path6093"
     style="fill:#e999a9;fill-opacity:1" />
  <circle
     fill="#A6D388"
     cx="6.5"
     cy="16.5"
     r=".5"
     id="circle6095"
     style="fill:#dcdcdc;fill-opacity:1" />
  <path
     fill="#A6D388"
     d="M10 16.5c0 .276-.224.5-.5.5s-.5-.223-.5-.5.224-.5.5-.5.5.224.5.5z"
     id="path6097"
     style="fill:#dcdcdc;fill-opacity:1" />
  <circle
     fill="#A6D388"
     cx="10"
     cy="15"
     r="1"
     id="circle6099"
     style="fill:#dcdcdc;fill-opacity:1" />
  <circle
     fill="#dd2e44"
     cx="9"
     cy="12"
     r="1"
     id="circle6101"
     style="mix-blend-mode:normal;fill:#cf8393;fill-opacity:1" />
  <circle
     fill="#FFD983"
     cx="11"
     cy="12"
     r="1"
     id="circle6103"
     style="fill:#ffb0c0;fill-opacity:1" />
  <circle
     fill="#FFD983"
     cx="12"
     cy="10"
     r="1"
     id="circle6105"
     style="fill:#46beeb;fill-opacity:1" />
  <circle
     fill="#FFD983"
     cx="9"
     cy="14"
     r="1"
     id="circle6107"
     style="fill:#ffb0c0;fill-opacity:1" />
  <path
     fill="#A6D388"
     d="M15 9c-.552 0-1 .448-1 1 0 .035.016.064.02.098-.162-.06-.336-.098-.52-.098-.829 0-1.5.671-1.5 1.5 0 .561.311 1.043.767 1.301.845-1.354 1.856-2.513 2.989-3.436C15.573 9.147 15.308 9 15 9z"
     id="path6109"
     style="fill:#269ecc;fill-opacity:1" />
  <circle
     fill="#DD2E44"
     cx="12"
     cy="11"
     r="1"
     id="circle6111"
     style="fill:#50c8f5;fill-opacity:1" />
  <ellipse
     transform="rotate(-80.781 14 9)"
     fill="#DD2E44"
     cx="14"
     cy="9"
     rx="1"
     ry="1"
     id="ellipse6113"
     style="fill:#50c8f5;fill-opacity:1" />
  <circle
     fill="#f4900c"
     cx="17"
     cy="25"
     r="1"
     id="circle6115"
     style="mix-blend-mode:darken;fill:#505050;fill-opacity:0.40000001" />
  <circle
     fill="#f4900c"
     cx="13"
     cy="28"
     r="1"
     id="circle6117"
     style="mix-blend-mode:darken;fill:#505050;fill-opacity:0.40000001" />
  <circle
     fill="#f4900c"
     cx="19"
     cy="28"
     r="1"
     id="circle6119"
     style="mix-blend-mode:darken;fill:#505050;fill-opacity:0.40000001" />
  <circle
     fill="#f4900c"
     cx="22"
     cy="27"
     r="1"
     id="circle6121"
     style="mix-blend-mode:darken;fill:#505050;fill-opacity:0.40000001" />
  <circle
     fill="#f4900c"
     cx="26"
     cy="27"
     r="1"
     id="circle6123"
     style="mix-blend-mode:darken;fill:#505050;fill-opacity:0.40000001" />
  <circle
     fill="#f4900c"
     cx="29"
     cy="28"
     r="1"
     id="circle6125"
     style="mix-blend-mode:darken;fill:#505050;fill-opacity:0.40000001" />
  <circle
     fill="#f4900c"
     cx="31"
     cy="26"
     r="1"
     id="circle6127"
     style="mix-blend-mode:darken;fill:#505050;fill-opacity:0.40000001" />
  <circle
     fill="#f4900c"
     cx="21"
     cy="22"
     r="1"
     id="circle6129"
     style="mix-blend-mode:darken;fill:#505050;fill-opacity:0.40000001" />
  <circle
     fill="#f4900c"
     cx="15"
     cy="22"
     r="1"
     id="circle6131"
     style="mix-blend-mode:darken;fill:#505050;fill-opacity:0.40000001" />
  <circle
     fill="#f4900c"
     cx="34"
     cy="24"
     r="1"
     id="circle6133"
     style="mix-blend-mode:darken;fill:#505050;fill-opacity:0.40000001" />
  <circle
     fill="#f4900c"
     cx="17"
     cy="18"
     r="1"
     id="circle6135"
     style="mix-blend-mode:darken;fill:#505050;fill-opacity:0.40000001" />
  <circle
     fill="#f4900c"
     cx="22"
     cy="16"
     r="1"
     id="circle6137"
     style="mix-blend-mode:darken;fill:#505050;fill-opacity:0.40000001" />
  <path
     fill="#f4900c"
     d="m 20,12 c 0,0.552 -0.447,1 -1,1 -0.552,0 -1,-0.448 -1,-1 0,-0.552 0.448,-1 1,-1 0.553,0 1,0.448 1,1 z"
     id="path6139"
     style="mix-blend-mode:darken;fill:#505050;fill-opacity:0.40000001" />
  <circle
     fill="#f4900c"
     cx="27"
     cy="13"
     r="1"
     id="circle6141"
     style="mix-blend-mode:darken;fill:#505050;fill-opacity:0.40000001" />
  <circle
     fill="#f4900c"
     cx="24"
     cy="10"
     r="1"
     id="circle6143"
     style="mix-blend-mode:darken;fill:#505050;fill-opacity:0.40000001" />
  <circle
     fill="#f4900c"
     cx="31"
     cy="19"
     r="1"
     id="circle6145"
     style="mix-blend-mode:darken;fill:#505050;fill-opacity:0.40000001" />
  <circle
     fill="#f4900c"
     cx="26"
     cy="19"
     r="1"
     id="circle6147"
     style="mix-blend-mode:darken;fill:#505050;fill-opacity:0.40000001" />
  <circle
     fill="#f4900c"
     cx="24"
     cy="23"
     r="1"
     id="circle6149"
     style="mix-blend-mode:darken;fill:#505050;fill-opacity:0.40000001" />
  <circle
     fill="#f4900c"
     cx="29"
     cy="22"
     r="1"
     id="circle6151"
     style="mix-blend-mode:darken;fill:#505050;fill-opacity:0.40000001" />
</svg>
