<?xml version="1.0" encoding="UTF-8" standalone="no"?>
<svg
   xmlns:dc="http://purl.org/dc/elements/1.1/"
   xmlns:cc="http://creativecommons.org/ns#"
   xmlns:rdf="http://www.w3.org/1999/02/22-rdf-syntax-ns#"
   xmlns:svg="http://www.w3.org/2000/svg"
   xmlns="http://www.w3.org/2000/svg"
   xmlns:sodipodi="http://sodipodi.sourceforge.net/DTD/sodipodi-0.dtd"
   xmlns:inkscape="http://www.inkscape.org/namespaces/inkscape"
   viewBox="0 0 36 36"
   version="1.1"
   id="svg2058"
   sodipodi:docname="transCupcake.svg"
   inkscape:version="1.0.2-2 (e86c870879, 2021-01-15)">
  <metadata
     id="metadata2064">
    <rdf:RDF>
      <cc:Work
         rdf:about="">
        <dc:format>image/svg+xml</dc:format>
        <dc:type
           rdf:resource="http://purl.org/dc/dcmitype/StillImage" />
        <dc:title></dc:title>
      </cc:Work>
    </rdf:RDF>
  </metadata>
  <defs
     id="defs2062" />
  <sodipodi:namedview
     pagecolor="#ffffff"
     bordercolor="#666666"
     borderopacity="1"
     objecttolerance="10"
     gridtolerance="10"
     guidetolerance="10"
     inkscape:pageopacity="0"
     inkscape:pageshadow="2"
     inkscape:window-width="1837"
     inkscape:window-height="1051"
     id="namedview2060"
     showgrid="false"
     inkscape:zoom="12.222222"
     inkscape:cx="-7.0426373"
     inkscape:cy="21.710187"
     inkscape:window-x="-9"
     inkscape:window-y="-9"
     inkscape:window-maximized="1"
     inkscape:current-layer="svg2058" />
  <path
     fill="#BBDDF5"
     d="M5 21.875s1.589 5.727 2 8.482c.464 3.111 3.571 5.571 11 5.571s10.536-2.461 11-5.571c.411-2.755 2-8.482 2-8.482H5z"
     id="path2034" />
  <path
     fill="#662113"
     d="M5.094 21.969c.25 1.219.694 1.994 1.344 1.594.65-.4 1.65-.193 1.344.625-.281.75.969 1.094 1.5.656.509-.419 1.555-.881 1.656.062.094.875 1.168 1.11 1.656.469.5-.656 1.875-.394 2.125.406s1.594.688 1.969.125c.355-.533.713-.885 1.312-.885V25c.6 0 .957.373 1.312.906.375.562 1.719.675 1.969-.125s1.625-1.062 2.125-.406c.489.641 1.562.406 1.656-.469.101-.943 1.147-.482 1.656-.062.531.438 1.781.094 1.5-.656-.307-.818.694-1.025 1.344-.625.65.4 1.094-.375 1.344-1.594H5.094z"
     id="path2036" />
  <path
     fill="#C1694F"
     d="M33 18.969c0-4.919-6.731-8.906-15.033-8.906-8.303 0-15.033 3.987-15.033 8.906 0 3.969 9 6.031 15.033 6.031S33 23 33 18.969z"
     id="path2038"
     style="fill:#d9d9d9;fill-opacity:1" />
  <path
     d="M18 35.5c-.276 0-.5-.224-.5-.5v-8.646c0-.276.224-.5.5-.5s.5.224.5.5V35c0 .276-.224.5-.5.5zm-6.699-1.268c-.248 0-.463-.184-.496-.436l-1.031-7.982c-.035-.274.158-.525.432-.561.272-.041.524.158.56.432l1.031 7.982c.035.274-.158.525-.432.561-.021.003-.043.004-.064.004zm3.179.976c-.257 0-.476-.197-.498-.459l-.708-8.521c-.023-.274.182-.517.457-.539.283-.022.517.182.54.457l.708 8.521c.023.274-.182.517-.457.539l-.042.002zm-5.959-3.041c-.175 0-.331-.123-.367-.301l-1.5-7.438c-.041-.203.09-.4.293-.441.198-.048.4.09.442.293l1.5 7.438c.041.203-.09.4-.293.441-.026.006-.051.008-.075.008zm16.1 1.952c-.024 0-.048-.002-.072-.005-.273-.039-.463-.293-.424-.566l1.13-7.869c.039-.274.296-.456.566-.424.273.039.463.293.424.566l-1.13 7.869c-.036.249-.25.429-.494.429zm-3.042 1.089l-.042-.002c-.275-.022-.48-.265-.457-.539l.708-8.521c.022-.276.292-.474.539-.457.275.022.48.265.457.539l-.708 8.521c-.021.262-.24.459-.497.459zm5.983-3c-.023 0-.047-.002-.07-.007-.204-.039-.337-.235-.298-.438l1.438-7.479c.039-.203.241-.337.438-.298.204.039.337.235.298.438l-1.438 7.479c-.034.18-.191.305-.368.305z"
     fill="#88C9F9"
     id="path2040" />
  <path
     d="m 5.6425781,18.792969 c 0.2284397,0.212506 0.477959,0.415568 0.7480469,0.611328 C 6.1200696,19.208563 5.8716891,19.005351 5.6425781,18.792969 Z"
     id="path2256" />
  <path
     d="M 7.2773438,19.972656 C 6.9672778,19.795988 6.6759177,19.61021 6.40625,19.416016 c 0.2699526,0.194756 0.5602197,0.379646 0.8710938,0.55664 z"
     id="path2254" />
  <path
     d="m 7.3144531,19.992188 c -0.012013,-0.0068 -0.025157,-0.01273 -0.037109,-0.01953 0.00845,0.0048 0.01496,0.01083 0.023437,0.01563 0.00443,0.0018 0.00925,0.0021 0.013672,0.0039 z"
     id="path2252" />
  <path
     d="m 28.884766,9.3359375 c 2.9e-5,6.848e-4 -2.9e-5,0.00127 0,0.00195 C 28.973727,13.891919 17.53808,24.146902 7.3144531,19.992188 9.7137121,21.345939 13.299186,22.16491 18,22.185547 c 11.11,0.049 14.602438,-4.721735 14.148438,-8.177735 -0.608,-4.6269995 -3.263672,-4.6718745 -3.263672,-4.6718745 z"
     id="path2250"
     style="fill:#efefef;fill-opacity:1" />
  <path
     d="m 28.068359,6.8007812 c 0.320451,0.631546 0.655705,1.4590496 0.771485,2.1347657 -0.09639,-0.8794307 -0.376281,-1.5809477 -0.771485,-2.1347657 z"
     id="path2248"
     style="fill:#f7a8b8;fill-opacity:1" />
  <path
     d="m 8.1953125,9.0605469 c -0.00176,-0.1756841 0.00486,-0.4267923 0.039063,-0.7246094 -0.032339,0.2979489 -0.042092,0.550446 -0.039063,0.7246094 z"
     id="path2246" />
  <path
     d="m 5.03125,18.142578 c 0.1767386,0.215261 0.3696862,0.425628 0.5839844,0.626953 C 5.4003103,18.568341 5.2087148,18.357649 5.03125,18.142578 Z"
     id="path2244" />
  <path
     d="m 4.96875,18.072266 c 0.019303,0.02413 0.042729,0.04635 0.0625,0.07031 -0.019647,-0.02393 -0.043319,-0.04622 -0.0625,-0.07031 z"
     id="path2242" />
  <path
     d="M 4.5332031,17.4375 C 4.6626251,17.654509 4.8052374,17.866854 4.96875,18.072266 4.8047461,17.867278 4.6632081,17.65404 4.5332031,17.4375 Z"
     id="path2240" />
  <path
     d="m 4.4667969,17.335938 c 0.01979,0.03468 0.045752,0.06716 0.066406,0.101562 -0.020554,-0.03447 -0.046716,-0.06682 -0.066406,-0.101562 z"
     id="path2238" />
  <path
     d="m 4.1796875,16.726562 c 0.083979,0.2067 0.1749406,0.41144 0.2871094,0.609376 -0.1129237,-0.197897 -0.2024733,-0.40269 -0.2871094,-0.609376 z"
     id="path2236" />
  <path
     d="m 4.1015625,16.550781 c 0.021909,0.0599 0.053879,0.116572 0.078125,0.175781 -0.024054,-0.0592 -0.056396,-0.115889 -0.078125,-0.175781 z"
     id="path2234" />
  <path
     d="m 3.921875,15.900391 c 0.04763,0.220233 0.1027685,0.438376 0.1796875,0.65039 -0.07739,-0.211584 -0.1316376,-0.430569 -0.1796875,-0.65039 z"
     id="path2232" />
  <path
     d="m 3.8808594,15.742188 c 0.00991,0.0537 0.029379,0.104967 0.041016,0.158203 -0.011534,-0.05333 -0.031208,-0.104415 -0.041016,-0.158203 z"
     id="path2230" />
  <path
     d="m 3.8203125,15.142578 c 0.01272,0.201622 0.024846,0.403805 0.060547,0.59961 -0.03615,-0.195975 -0.047589,-0.397751 -0.060547,-0.59961 z"
     id="path2228" />
  <path
     d="m 3.796875,14.880859 c 0.00122,0.08893 0.017797,0.173845 0.023437,0.261719 -0.00553,-0.08772 -0.022276,-0.172951 -0.023437,-0.261719 z"
     id="path2226" />
  <path
     d="m 3.8515625,14.011719 c -0.041612,0.294892 -0.058416,0.58424 -0.054687,0.86914 -0.0039,-0.284472 0.012971,-0.57456 0.054687,-0.86914 z"
     id="path2224" />
  <path
     d="m 27.792969,6.4570312 c 0.09232,0.1050596 0.183127,0.2147752 0.267578,0.3320313 -0.08447,-0.1175127 -0.174171,-0.2271989 -0.267578,-0.3320313 z"
     id="path2222" />
  <path
     d="m 27.722656,6.3789062 c 0.0239,0.025498 0.04691,0.051859 0.07031,0.078125 -0.02327,-0.02648 -0.04654,-0.052419 -0.07031,-0.078125 z"
     id="path2220" />
  <path
     d="m 27.435547,6.0957031 c 0.09994,0.088209 0.194721,0.1832879 0.287109,0.2832031 -0.09296,-0.099168 -0.187546,-0.1952251 -0.287109,-0.2832031 z"
     id="path2218" />
  <path
     d="m 23.443359,4.6621094 c 0.09,2.726 -2.597203,4.7337968 -5.533203,5.8417966 -4.127,1.558 -8.7981248,1.216985 -9.7031248,-1.1660154 0,0 -0.00995,-0.1011875 -0.011719,-0.2773437 0.00298,0.1713296 0.00977,0.2773437 0.00977,0.2773437 0,0 -3.7195156,0.191875 -4.3535156,4.6718754 -9.33e-5,6.59e-4 9.3e-5,0.0013 0,0.002 0,0 3.3552969,4.670453 11.6542965,3.064453 6.367,-1.233 13.038688,-6.554469 11.929688,-10.9804689 C 25.823062,4.6708526 23.447508,4.6621105 23.443359,4.6621094 Z"
     id="path2216"
     style="fill:#f7a8b8;fill-opacity:1" />
  <path
     d="m 23.357422,3.9609375 c 0.05032,0.2230812 0.08398,0.4541581 0.08398,0.7011719 0,0 0.002,0 0.002,0 0,-0.2474523 -0.03463,-0.4784603 -0.08594,-0.7011719 z"
     id="path2214" />
  <path
     d="m 23.287109,3.7304688 c 0.02441,0.076555 0.05194,0.1507207 0.07031,0.2304687 -0.01801,-0.07983 -0.04634,-0.1537765 -0.07031,-0.2304687 z"
     id="path2212" />
  <path
     d="m 23.136719,3.3398438 c 0.05953,0.1249596 0.108241,0.2558061 0.15039,0.390625 -0.04295,-0.1346962 -0.08996,-0.265861 -0.15039,-0.390625 z"
     id="path2210" />
  <path
     d="m 22.992188,3.0742188 c 0.05255,0.085542 0.100534,0.1747906 0.144531,0.265625 -0.04367,-0.091664 -0.09215,-0.1793634 -0.144531,-0.265625 z"
     id="path2208" />
  <path
     d="m 22.806641,2.8105469 c 0.06518,0.085784 0.129658,0.1716418 0.185547,0.2636719 -0.05635,-0.091718 -0.120072,-0.1780653 -0.185547,-0.2636719 z"
     id="path2206" />
  <path
     d="m 22.597656,2.5449219 c 0.07756,0.082747 0.140569,0.1761737 0.208985,0.265625 -0.06833,-0.08993 -0.131178,-0.182671 -0.208985,-0.265625 z"
     id="path2204" />
  <path
     d="m 8.34375,7.7089844 c -0.049041,0.2218337 -0.087491,0.435076 -0.109375,0.625 0.020532,-0.1886727 0.061974,-0.4043503 0.109375,-0.625 z"
     id="path2202" />
  <path
     d="M 16.912109,-0.01171875 C 15.461109,1.1572812 14.734375,3.4941406 14.734375,3.4941406 10.044906,3.4934861 8.7152855,5.979513 8.34375,7.7089844 8.4490558,7.232638 8.6226065,6.7036698 8.9238281,6.1796875 l 0.00781,-0.00781 c 0,0 -0.6812343,3.5060469 5.2597654,2.8730469 C 18.93833,8.5390366 23.232414,5.3466 22.591797,2.5390625 21.775311,1.6727702 20.468833,1.1860852 19.087891,1.15625 c -1.088,-0.023 -2.175782,-1.16796875 -2.175782,-1.16796875 z"
     id="path2042"
     style="fill:#55cdfc;fill-opacity:1" />
  <path
     fill="#55ACEE"
     d="M14.935 8.187l-1.956-.419c-.538-.115-.884-.65-.768-1.187.115-.538.65-.884 1.187-.768l1.956.419c.538.115.884.65.768 1.187-.115.538-.649.884-1.187.768z"
     id="path2050"
     style="fill:#e38aa4;fill-opacity:1" />
  <path
     fill="#F4900C"
     d="M24.372 11.499l-1.871.707c-.515.194-1.095-.068-1.289-.582-.194-.515.068-1.095.582-1.289l1.871-.707c.515-.194 1.095.068 1.289.582.195.514-.067 1.094-.582 1.289z"
     id="path2054"
     style="fill:#41b9e8;fill-opacity:1" />
  <path
     fill="#AA8DD8"
     d="M30.366 14.051l-1 1.732c-.275.476-.89.641-1.366.366-.476-.275-.641-.89-.366-1.366l1-1.732c.275-.476.89-.641 1.366-.366.476.275.641.889.366 1.366z"
     id="path2056"
     style="fill:#e38aa4;fill-opacity:1" />
  <path
     fill="#ffcc4d"
     d="m 17.917638,10.496878 c 2.936,-1.1080005 5.623,-3.1150005 5.533,-5.8410005 0,-0.858 -0.327,-1.568 -0.852,-2.125 0.643,2.808 -3.651,6 -8.399,6.506 -5.9409999,0.633 -5.2609999,-2.872 -5.2609999,-2.872 l -0.007,0.007 c -0.883,1.536 -0.717,3.159 -0.717,3.159 0.905,2.3830005 5.5759999,2.7240005 9.7029999,1.1660005 z"
     id="path2861"
     style="fill:#41b9e8;fill-opacity:1" />
  <path
     fill="#ffcc4d"
     d="m 28.892638,9.3298775 c -0.006,-0.143 -0.03,-0.268 -0.045,-0.402 -0.116,-0.677 -0.453,-1.506 -0.774,-2.138 -0.19,-0.265 -0.4,-0.499 -0.63,-0.702 1.109,4.4260005 -5.563,9.7489995 -11.93,10.9819995 -8.2989999,1.606 -11.6539999,-3.065 -11.6539999,-3.065 -0.342,2.415 0.858,4.509 3.449,5.976 10.2269999,4.169 21.6729999,-6.095 21.5839999,-10.6509995 z"
     id="path2863"
     style="fill:#e38aa4;fill-opacity:1" />
  <path
     fill="#DD2E44"
     d="M8.689 14.201l-1.181 1.614c-.325.444-.954.541-1.398.216-.444-.325-.541-.954-.216-1.398l1.181-1.614c.325-.444.954-.541 1.398-.216.444.325.541.954.216 1.398z"
     id="path2048"
     style="fill:#41b9e8;fill-opacity:1" />
  <path
     fill="#77B255"
     d="M16.431 14.173l1.313 1.509c.361.415.317 1.05-.098 1.411-.415.361-1.05.317-1.411-.098l-1.313-1.509c-.361-.415-.317-1.05.098-1.411.415-.361 1.05-.317 1.411.098z"
     id="path2052"
     style="fill:#efefef;fill-opacity:1" />
</svg>
