<?xml version="1.0" encoding="UTF-8" standalone="no"?>
<svg
   xmlns:dc="http://purl.org/dc/elements/1.1/"
   xmlns:cc="http://creativecommons.org/ns#"
   xmlns:rdf="http://www.w3.org/1999/02/22-rdf-syntax-ns#"
   xmlns:svg="http://www.w3.org/2000/svg"
   xmlns="http://www.w3.org/2000/svg"
   xmlns:sodipodi="http://sodipodi.sourceforge.net/DTD/sodipodi-0.dtd"
   xmlns:inkscape="http://www.inkscape.org/namespaces/inkscape"
   viewBox="0 0 36 36"
   version="1.1"
   id="svg3904"
   sodipodi:docname="transChocolate.svg"
   inkscape:version="1.0.2-2 (e86c870879, 2021-01-15)"
   inkscape:export-filename="C:\Users\tacos\Documents\random things\twemoji\transmoji\transmoji\Food\transChocolate.png"
   inkscape:export-xdpi="584"
   inkscape:export-ydpi="584">
  <metadata
     id="metadata3910">
    <rdf:RDF>
      <cc:Work
         rdf:about="">
        <dc:format>image/svg+xml</dc:format>
        <dc:type
           rdf:resource="http://purl.org/dc/dcmitype/StillImage" />
        <dc:title></dc:title>
      </cc:Work>
    </rdf:RDF>
  </metadata>
  <defs
     id="defs3908">
    <pattern
       patternUnits="userSpaceOnUse"
       width="35.999995"
       height="36.000003"
       patternTransform="translate(71.999998,35.999999)"
       id="pattern2630">
      <rect
         style="fill:#28a0cf;fill-opacity:1;stroke:none;stroke-width:0.839365"
         id="rect4255-3-9-5"
         width="35.999996"
         height="7.1999998"
         x="0"
         y="0" />
      <rect
         style="fill:#ca7b8b;fill-opacity:1;stroke:none;stroke-width:0.839365"
         id="rect4255-5-2-6-3"
         width="35.999996"
         height="7.1999998"
         x="0"
         y="7.2000027" />
      <rect
         style="fill:#c2c2c2;fill-opacity:1;stroke:none;stroke-width:0.839365"
         id="rect4255-8-0-2-1"
         width="35.999996"
         height="7.1999998"
         x="0"
         y="14.400002" />
      <rect
         style="fill:#ca7b8b;fill-opacity:1;stroke:none;stroke-width:0.839365"
         id="rect4255-2-1-1-8"
         width="35.999996"
         height="7.1999998"
         x="0"
         y="21.600004" />
      <rect
         style="fill:#28a0cf;fill-opacity:1;stroke:none;stroke-width:0.839365"
         id="rect4255-9-5-1-0"
         width="35.999996"
         height="7.1999998"
         x="0"
         y="28.800003" />
    </pattern>
    <pattern
       patternUnits="userSpaceOnUse"
       width="35.999998"
       height="36.000003"
       patternTransform="translate(0,35.999999)"
       id="pattern4393">
      <rect
         style="fill:#55cdfc;fill-opacity:1;stroke:none;stroke-width:0.839365"
         id="rect4255-4"
         width="35.999996"
         height="7.1999998"
         x="0"
         y="0" />
      <rect
         style="fill:#f7a8b8;fill-opacity:1;stroke:none;stroke-width:0.839365"
         id="rect4255-5-0"
         width="35.999996"
         height="7.1999998"
         x="0"
         y="7.1999989" />
      <rect
         style="fill:#efefef;fill-opacity:1;stroke:none;stroke-width:0.839365"
         id="rect4255-8-2"
         width="35.999996"
         height="7.1999998"
         x="2.7033288e-06"
         y="14.399998" />
      <rect
         style="fill:#f7a8b8;fill-opacity:1;stroke:none;stroke-width:0.839365"
         id="rect4255-2-4"
         width="35.999996"
         height="7.1999998"
         x="0"
         y="21.6" />
      <rect
         style="fill:#55cdfc;fill-opacity:1;stroke:none;stroke-width:0.839365"
         id="rect4255-9-1"
         width="35.999996"
         height="7.1999998"
         x="0"
         y="28.800003" />
    </pattern>
  </defs>
  <sodipodi:namedview
     pagecolor="#ffffff"
     bordercolor="#666666"
     borderopacity="1"
     objecttolerance="10"
     gridtolerance="10"
     guidetolerance="10"
     inkscape:pageopacity="0"
     inkscape:pageshadow="2"
     inkscape:window-width="1837"
     inkscape:window-height="1051"
     id="namedview3906"
     showgrid="false"
     inkscape:zoom="17.284832"
     inkscape:cx="14.509309"
     inkscape:cy="16.644392"
     inkscape:window-x="-9"
     inkscape:window-y="-9"
     inkscape:window-maximized="1"
     inkscape:current-layer="svg3904" />
  <path
     fill="#C1694F"
     d="M26.339 33.496c-1.562 1.561-4.095 1.561-5.657 0L1.59 14.404c-1.562-1.562-1.562-2.681 0-4.243l8.485-8.485c1.562-1.562 2.681-1.562 4.243 0L33.41 20.768c1.562 1.562 1.562 4.095 0 5.657l-7.071 7.071z"
     id="path3894"
     style="fill:#f7a8b8;fill-opacity:1" />
  <path
     fill="#8A4B38"
     d="M16.582 15.253l-4.885-4.885 5.657-5.657-1.415-1.414-5.656 5.657L6.54 5.211 5.126 6.626l3.743 3.742-5.657 5.657 1.414 1.414 5.657-5.657 4.885 4.885z"
     id="path3896"
     style="fill:#cd82a2;fill-opacity:1" />
  <path
     fill="#DD2E44"
     d="M26.339 34.91c-1.562 1.562-4.095 1.562-5.657 0l-9.899-9.899 14.142-14.142 9.899 9.899c1.562 1.562 1.562 4.095 0 5.657l-8.485 8.485z"
     id="path3898"
     style="fill:#55cdfc;fill-opacity:1" />
  <path
     fill="#BE1931"
     d="M12.825 27.053l4.673 4.674 7.955-20.33-.528-.529-1.504-.932z"
     id="path3900"
     style="fill:#45a6cc;fill-opacity:1" />
  <path
     fill="#CCD6DD"
     d="M22.804 8.747l2.121 2.121c-.707 2.122-8.485 15.557-9.9 18.385 0 0-.707 2.121-2.475.354l-5.304-5.304c-.679-.679-.685-2.142 0-2.828L19.975 8.747c1.414-1.414 2.829 0 2.829 0z"
     id="path3902"
     style="fill:#e1ecf4;fill-opacity:1" />
</svg>
