<?xml version="1.0" encoding="UTF-8" standalone="no"?>
<svg
   xmlns:dc="http://purl.org/dc/elements/1.1/"
   xmlns:cc="http://creativecommons.org/ns#"
   xmlns:rdf="http://www.w3.org/1999/02/22-rdf-syntax-ns#"
   xmlns:svg="http://www.w3.org/2000/svg"
   xmlns="http://www.w3.org/2000/svg"
   xmlns:sodipodi="http://sodipodi.sourceforge.net/DTD/sodipodi-0.dtd"
   xmlns:inkscape="http://www.inkscape.org/namespaces/inkscape"
   viewBox="0 0 36 36"
   version="1.1"
   id="svg7082"
   sodipodi:docname="transHotdog.svg"
   inkscape:version="1.0.2-2 (e86c870879, 2021-01-15)"
   inkscape:export-filename="C:\Users\tacos\Documents\random things\twemoji\transmoji\transmoji\Food\transHotdog.png"
   inkscape:export-xdpi="581.13"
   inkscape:export-ydpi="581.13">
  <metadata
     id="metadata7088">
    <rdf:RDF>
      <cc:Work
         rdf:about="">
        <dc:format>image/svg+xml</dc:format>
        <dc:type
           rdf:resource="http://purl.org/dc/dcmitype/StillImage" />
        <dc:title></dc:title>
      </cc:Work>
    </rdf:RDF>
  </metadata>
  <defs
     id="defs7086">
    <pattern
       patternUnits="userSpaceOnUse"
       width="35.999998"
       height="36.000003"
       patternTransform="translate(0,35.999999)"
       id="pattern4393">
      <rect
         style="fill:#55cdfc;fill-opacity:1;stroke:none;stroke-width:0.839365"
         id="rect4255-4"
         width="35.999996"
         height="7.1999998"
         x="0"
         y="0" />
      <rect
         style="fill:#f7a8b8;fill-opacity:1;stroke:none;stroke-width:0.839365"
         id="rect4255-5-0"
         width="35.999996"
         height="7.1999998"
         x="0"
         y="7.1999989" />
      <rect
         style="fill:#efefef;fill-opacity:1;stroke:none;stroke-width:0.839365"
         id="rect4255-8-2"
         width="35.999996"
         height="7.1999998"
         x="2.7033288e-06"
         y="14.399998" />
      <rect
         style="fill:#f7a8b8;fill-opacity:1;stroke:none;stroke-width:0.839365"
         id="rect4255-2-4"
         width="35.999996"
         height="7.1999998"
         x="0"
         y="21.6" />
      <rect
         style="fill:#55cdfc;fill-opacity:1;stroke:none;stroke-width:0.839365"
         id="rect4255-9-1"
         width="35.999996"
         height="7.1999998"
         x="0"
         y="28.800003" />
    </pattern>
  </defs>
  <sodipodi:namedview
     pagecolor="#ffffff"
     bordercolor="#666666"
     borderopacity="1"
     objecttolerance="10"
     gridtolerance="10"
     guidetolerance="10"
     inkscape:pageopacity="0"
     inkscape:pageshadow="2"
     inkscape:window-width="1837"
     inkscape:window-height="1051"
     id="namedview7084"
     showgrid="false"
     inkscape:zoom="17.284832"
     inkscape:cx="11.665042"
     inkscape:cy="18.254177"
     inkscape:window-x="-9"
     inkscape:window-y="-9"
     inkscape:window-maximized="1"
     inkscape:current-layer="svg7082" />
  <path
     fill="#D99E82"
     d="M31.42 31.471c-3.515 3.515-9.213 3.515-12.728 0L4.55 17.328c-3.515-3.515-3.515-9.213 0-12.728 3.515-3.515 9.213-3.515 12.728 0L31.42 18.743c3.515 3.514 3.515 9.213 0 12.728z"
     id="path7074"
     style="fill:#4cb8e3;fill-opacity:1" />
  <path
     fill="#F7BBA6"
     d="M29.335 20.9c3.515 3.515 4.609 8.119 2.475 10.253-2.135 2.134-6.739 1.039-10.253-2.475L7.414 14.536c-3.515-3.515-4.609-8.12-2.475-10.253 2.134-2.134 6.738-1.04 10.253 2.475L29.335 20.9z"
     id="path7076"
     style="fill:#64e0fc;fill-opacity:1" />
  <path
     fill="#DD2E44"
     d="M33.167 28.974c1.415 1.415 1.611 3.51.44 4.682-1.172 1.171-3.267.975-4.682-.44L2.732 7.025c-1.414-1.414-1.61-3.51-.439-4.682 1.171-1.171 3.268-.975 4.682.439l26.192 26.192z"
     id="path7078"
     style="fill:#e79dac;fill-opacity:1" />
  <path
     fill="#FFCC4D"
     d="M32.127 31.764c-.256 0-.512-.098-.707-.293-.916-.916-1.598-1.07-2.462-1.266-.988-.224-2.109-.478-3.435-1.803s-1.578-2.446-1.802-3.435c-.195-.863-.35-1.546-1.266-2.462-.915-.915-1.597-1.069-2.46-1.264-.989-.224-2.11-.477-3.434-1.801-1.323-1.324-1.576-2.444-1.799-3.432-.194-.862-.348-1.543-1.262-2.458-.914-.914-1.595-1.067-2.457-1.262-.988-.223-2.108-.476-3.432-1.799-1.322-1.322-1.575-2.442-1.798-3.43-.195-.863-.348-1.544-1.263-2.458-.391-.39-.391-1.023 0-1.414s1.023-.391 1.414 0c1.324 1.323 1.577 2.443 1.8 3.432.195.862.348 1.543 1.263 2.458.914.914 1.595 1.067 2.457 1.262.988.223 2.108.476 3.432 1.799 1.324 1.324 1.576 2.444 1.799 3.432.194.862.348 1.543 1.262 2.458.916.916 1.597 1.07 2.46 1.264.988.224 2.109.477 3.434 1.801 1.325 1.325 1.578 2.446 1.802 3.435.195.863.35 1.546 1.266 2.462s1.599 1.07 2.462 1.266c.989.224 2.11.478 3.435 1.803.391.391.391 1.023 0 1.414-.197.193-.453.291-.709.291z"
     id="path7080"
     style="fill:#efefef;fill-opacity:1" />
</svg>
