<?xml version="1.0" encoding="UTF-8" standalone="no"?>
<svg
   xmlns:dc="http://purl.org/dc/elements/1.1/"
   xmlns:cc="http://creativecommons.org/ns#"
   xmlns:rdf="http://www.w3.org/1999/02/22-rdf-syntax-ns#"
   xmlns:svg="http://www.w3.org/2000/svg"
   xmlns="http://www.w3.org/2000/svg"
   xmlns:xlink="http://www.w3.org/1999/xlink"
   xmlns:sodipodi="http://sodipodi.sourceforge.net/DTD/sodipodi-0.dtd"
   xmlns:inkscape="http://www.inkscape.org/namespaces/inkscape"
   viewBox="0 0 36 36"
   version="1.1"
   id="svg2594"
   sodipodi:docname="transCookie.svg"
   inkscape:version="1.0.2-2 (e86c870879, 2021-01-15)"
   inkscape:export-filename="C:\Users\tacos\Documents\random things\twemoji\transmoji\transmoji\Food\transCookie.png"
   inkscape:export-xdpi="584"
   inkscape:export-ydpi="584">
  <metadata
     id="metadata2600">
    <rdf:RDF>
      <cc:Work
         rdf:about="">
        <dc:format>image/svg+xml</dc:format>
        <dc:type
           rdf:resource="http://purl.org/dc/dcmitype/StillImage" />
        <dc:title></dc:title>
      </cc:Work>
    </rdf:RDF>
  </metadata>
  <defs
     id="defs2598">
    <pattern
       inkscape:collect="always"
       xlink:href="#pattern4393"
       id="pattern3201"
       patternTransform="translate(2.2956665e-6)" />
    <pattern
       patternUnits="userSpaceOnUse"
       width="35.999998"
       height="36.000003"
       patternTransform="translate(0,35.999999)"
       id="pattern4393">
      <rect
         style="fill:#55cdfc;fill-opacity:1;stroke:none;stroke-width:0.839365"
         id="rect4255-4"
         width="35.999996"
         height="7.1999998"
         x="0"
         y="0" />
      <rect
         style="fill:#f7a8b8;fill-opacity:1;stroke:none;stroke-width:0.839365"
         id="rect4255-5-0"
         width="35.999996"
         height="7.1999998"
         x="0"
         y="7.1999989" />
      <rect
         style="fill:#efefef;fill-opacity:1;stroke:none;stroke-width:0.839365"
         id="rect4255-8-2"
         width="35.999996"
         height="7.1999998"
         x="2.7033288e-06"
         y="14.399998" />
      <rect
         style="fill:#f7a8b8;fill-opacity:1;stroke:none;stroke-width:0.839365"
         id="rect4255-2-4"
         width="35.999996"
         height="7.1999998"
         x="0"
         y="21.6" />
      <rect
         style="fill:#55cdfc;fill-opacity:1;stroke:none;stroke-width:0.839365"
         id="rect4255-9-1"
         width="35.999996"
         height="7.1999998"
         x="0"
         y="28.800003" />
    </pattern>
    <pattern
       patternUnits="userSpaceOnUse"
       width="35.999996"
       height="36.000004"
       id="pattern3203">
      <rect
         style="fill:url(#pattern3201);stroke:none"
         width="35.999996"
         height="36.000004"
         x="0"
         y="0"
         id="rect4400" />
    </pattern>
  </defs>
  <sodipodi:namedview
     pagecolor="#ffffff"
     bordercolor="#666666"
     borderopacity="1"
     objecttolerance="10"
     gridtolerance="10"
     guidetolerance="10"
     inkscape:pageopacity="0"
     inkscape:pageshadow="2"
     inkscape:window-width="1837"
     inkscape:window-height="1051"
     id="namedview2596"
     showgrid="false"
     inkscape:zoom="17.284832"
     inkscape:cx="17.196367"
     inkscape:cy="19.270883"
     inkscape:window-x="-9"
     inkscape:window-y="-9"
     inkscape:window-maximized="1"
     inkscape:current-layer="svg2594" />
  <path
     fill="#DA9F83"
     d="M34.966 17.87c.414 4.649-2.082 8.731-4.831 12.206-2.304 2.554-5.602 3.631-8.901 4.285-3.198 1.089-6.766.739-9.716-.895-1.034-.43-2.248-.559-3.167-1.176-2.879-1.846-4.524-4.927-5.779-8.029-1.627-2.916-1.74-6.483-1.414-9.742.219-1.107.967-2.032 1.388-3.051.729-2.127 1.916-3.963 3.569-5.475.786-.787 1.377-1.823 2.303-2.444.919-.617 2.103-.758 3.137-1.188 1.016-.422 1.968-1.08 3.072-1.299 1.072-.213 2.201.106 3.335.106 2.235-.056 4.482.148 6.575.789 1.034.43 1.781 1.38 2.7 1.997.926.622 1.999 1.04 2.784 1.827 1.603 1.566 2.984 3.411 3.94 5.446.65 2.109.957 4.389 1.005 6.643z"
     id="path2590"
     style="fill:url(#pattern3203);fill-opacity:1.0" />
  <path
     fill="#8a4b38"
     d="m 22.638,16.947 c 1.177,-0.385 2.444,0.261 2.827,1.44 0.384,1.179 -0.26,2.447 -1.441,2.831 -1.181,0.384 -3.871,0.201 -4.255,-0.978 -0.383,-1.181 1.687,-2.911 2.869,-3.293 z m 8.57,-0.672 c -0.38,0.452 -1.055,0.512 -1.507,0.131 -0.452,-0.381 -0.511,-1.055 -0.131,-1.508 0.381,-0.451 1.514,-1.057 1.966,-0.677 0.453,0.381 0.053,1.601 -0.328,2.054 z m -22,-7 C 8.828,9.727 8.153,9.787 7.701,9.406 7.249,9.025 7.19,8.352 7.57,7.898 7.951,7.447 9.084,6.841 9.536,7.221 9.989,7.602 9.589,8.822 9.208,9.275 Z M 21.301,7.381 c -0.748,-0.478 -0.969,-1.472 -0.49,-2.22 0.479,-0.749 1.473,-0.968 2.222,-0.49 0.749,0.479 1.872,2.05 1.394,2.798 -0.48,0.75 -2.377,0.392 -3.126,-0.088 z m -7.926,6.217 c -0.515,-1.066 -0.064,-2.351 1.005,-2.864 1.069,-0.513 2.351,-0.061 2.864,1.008 0.513,1.07 0.682,3.643 -0.387,4.154 -1.071,0.514 -2.971,-1.227 -3.482,-2.298 z m 1.024,14.099 c 0.602,-0.874 1.8,-1.096 2.672,-0.492 0.874,0.605 1.094,1.801 0.49,2.675 -0.604,0.874 -2.528,2.147 -3.4,1.544 -0.875,-0.604 -0.366,-2.854 0.238,-3.727 z m 10.013,-0.406 c -0.687,-0.436 -0.889,-1.348 -0.449,-2.034 0.438,-0.685 1.349,-0.886 2.035,-0.447 0.686,0.438 1.715,1.878 1.276,2.562 -0.438,0.688 -2.176,0.359 -2.862,-0.081 z M 5.536,18.42 C 6.298,17.567 7.607,17.494 8.459,18.257 9.311,19.021 9.383,20.328 8.62,21.179 7.857,22.033 5.628,23.134 4.777,22.37 3.923,21.607 4.772,19.271 5.536,18.42 Z"
     id="path2592"
     style="mix-blend-mode:darken;fill:#484c5d;fill-opacity:0.49629629" />
</svg>
