<?xml version="1.0" encoding="UTF-8" standalone="no"?>
<svg
   xmlns:dc="http://purl.org/dc/elements/1.1/"
   xmlns:cc="http://creativecommons.org/ns#"
   xmlns:rdf="http://www.w3.org/1999/02/22-rdf-syntax-ns#"
   xmlns:svg="http://www.w3.org/2000/svg"
   xmlns="http://www.w3.org/2000/svg"
   xmlns:xlink="http://www.w3.org/1999/xlink"
   xmlns:sodipodi="http://sodipodi.sourceforge.net/DTD/sodipodi-0.dtd"
   xmlns:inkscape="http://www.inkscape.org/namespaces/inkscape"
   viewBox="0 0 36 36"
   version="1.1"
   id="svg2931"
   sodipodi:docname="transCheese.svg"
   inkscape:version="1.0.2-2 (e86c870879, 2021-01-15)"
   inkscape:export-filename="C:\Users\tacos\Documents\random things\twemoji\transmoji\transmoji\Food\transCheese.png"
   inkscape:export-xdpi="581.22998"
   inkscape:export-ydpi="581.22998">
  <metadata
     id="metadata2937">
    <rdf:RDF>
      <cc:Work
         rdf:about="">
        <dc:format>image/svg+xml</dc:format>
        <dc:type
           rdf:resource="http://purl.org/dc/dcmitype/StillImage" />
        <dc:title></dc:title>
      </cc:Work>
    </rdf:RDF>
  </metadata>
  <defs
     id="defs2935">
    <pattern
       inkscape:collect="always"
       xlink:href="#pattern4487"
       id="pattern4537"
       patternTransform="matrix(0.72867243,-0.1548236,0.12144991,0.5716004,6.5375236,14.000715)" />
    <pattern
       inkscape:collect="always"
       xlink:href="#pattern4438"
       id="pattern4530" />
    <pattern
       inkscape:collect="always"
       xlink:href="#pattern4393"
       id="pattern4485" />
    <pattern
       patternUnits="userSpaceOnUse"
       width="36.061364"
       height="33.545458"
       id="pattern3786">
      <rect
         style="fill:#55cdfc;fill-opacity:1"
         id="rect3737"
         width="36.061363"
         height="6.7090917"
         x="0"
         y="0" />
      <rect
         style="fill:#f7a8b8;fill-opacity:1"
         id="rect3737-1"
         width="36.061363"
         height="6.7090917"
         x="4.7132923e-07"
         y="6.7090917" />
      <rect
         style="fill:#efefef;fill-opacity:1"
         id="rect3737-7"
         width="36.061363"
         height="6.7090917"
         x="4.7132923e-07"
         y="13.418183" />
      <rect
         style="fill:#f7a8b8;fill-opacity:1"
         id="rect3737-2"
         width="36.061363"
         height="6.7090917"
         x="4.7132923e-07"
         y="20.127275" />
      <rect
         style="fill:#55cdfc;fill-opacity:1"
         id="rect3737-28"
         width="36.061363"
         height="6.7090917"
         x="4.7132923e-07"
         y="26.836367" />
    </pattern>
    <pattern
       patternUnits="userSpaceOnUse"
       width="36.061364"
       height="33.545458"
       id="pattern3786-2">
      <rect
         style="fill:#55cdfc;fill-opacity:1"
         id="rect3737-8"
         width="36.061363"
         height="6.7090917"
         x="0"
         y="0" />
      <rect
         style="fill:#f7a8b8;fill-opacity:1"
         id="rect3737-1-5"
         width="36.061363"
         height="6.7090917"
         x="4.7132923e-07"
         y="6.7090917" />
      <rect
         style="fill:#efefef;fill-opacity:1"
         id="rect3737-7-2"
         width="36.061363"
         height="6.7090917"
         x="4.7132923e-07"
         y="13.418183" />
      <rect
         style="fill:#f7a8b8;fill-opacity:1"
         id="rect3737-2-3"
         width="36.061363"
         height="6.7090917"
         x="4.7132923e-07"
         y="20.127275" />
      <rect
         style="fill:#55cdfc;fill-opacity:1"
         id="rect3737-28-2"
         width="36.061363"
         height="6.7090917"
         x="4.7132923e-07"
         y="26.836367" />
    </pattern>
    <pattern
       patternUnits="userSpaceOnUse"
       width="36.061364"
       height="33.545458"
       id="pattern3786-3">
      <rect
         style="fill:#55cdfc;fill-opacity:1"
         id="rect3737-0"
         width="36.061363"
         height="6.7090917"
         x="0"
         y="0" />
      <rect
         style="fill:#f7a8b8;fill-opacity:1"
         id="rect3737-1-4"
         width="36.061363"
         height="6.7090917"
         x="4.7132923e-07"
         y="6.7090917" />
      <rect
         style="fill:#efefef;fill-opacity:1"
         id="rect3737-7-6"
         width="36.061363"
         height="6.7090917"
         x="4.7132923e-07"
         y="13.418183" />
      <rect
         style="fill:#f7a8b8;fill-opacity:1"
         id="rect3737-2-8"
         width="36.061363"
         height="6.7090917"
         x="4.7132923e-07"
         y="20.127275" />
      <rect
         style="fill:#55cdfc;fill-opacity:1"
         id="rect3737-28-7"
         width="36.061363"
         height="6.7090917"
         x="4.7132923e-07"
         y="26.836367" />
    </pattern>
    <pattern
       patternUnits="userSpaceOnUse"
       width="35.999998"
       height="36.000003"
       patternTransform="translate(0,35.999999)"
       id="pattern4393">
      <rect
         style="fill:#55cdfc;fill-opacity:1;stroke:none;stroke-width:0.839365"
         id="rect4255-4"
         width="35.999996"
         height="7.1999998"
         x="0"
         y="0" />
      <rect
         style="fill:#f7a8b8;fill-opacity:1;stroke:none;stroke-width:0.839365"
         id="rect4255-5-0"
         width="35.999996"
         height="7.1999998"
         x="0"
         y="7.1999989" />
      <rect
         style="fill:#efefef;fill-opacity:1;stroke:none;stroke-width:0.839365"
         id="rect4255-8-2"
         width="35.999996"
         height="7.1999998"
         x="2.7033288e-06"
         y="14.399998" />
      <rect
         style="fill:#f7a8b8;fill-opacity:1;stroke:none;stroke-width:0.839365"
         id="rect4255-2-4"
         width="35.999996"
         height="7.1999998"
         x="0"
         y="21.6" />
      <rect
         style="fill:#55cdfc;fill-opacity:1;stroke:none;stroke-width:0.839365"
         id="rect4255-9-1"
         width="35.999996"
         height="7.1999998"
         x="0"
         y="28.800003" />
    </pattern>
    <pattern
       patternUnits="userSpaceOnUse"
       width="35.999996"
       height="36.000004"
       id="pattern4487">
      <rect
         style="fill:url(#pattern4485);stroke:none"
         width="35.999996"
         height="36.000004"
         x="0"
         y="0"
         id="rect4400" />
    </pattern>
    <pattern
       patternUnits="userSpaceOnUse"
       width="35.999999"
       height="35.999996"
       patternTransform="translate(36.000003,35.999999)"
       id="pattern4438">
      <rect
         style="fill:#3cb4e3;fill-opacity:1;stroke:none;stroke-width:0.839365"
         id="rect4255-3-1"
         width="35.999996"
         height="7.1999998"
         x="0"
         y="0" />
      <rect
         style="fill:#de8f9f;fill-opacity:1;stroke:none;stroke-width:0.839365"
         id="rect4255-5-2-9"
         width="35.999996"
         height="7.1999998"
         x="0"
         y="7.1999989" />
      <rect
         style="fill:#d6d6d6;fill-opacity:1;stroke:none;stroke-width:0.839365"
         id="rect4255-8-0-9"
         width="35.999996"
         height="7.1999998"
         x="3.6044385e-06"
         y="14.399998" />
      <rect
         style="fill:#de8f9f;fill-opacity:1;stroke:none;stroke-width:0.839365"
         id="rect4255-2-1-7"
         width="35.999996"
         height="7.1999998"
         x="0"
         y="21.6" />
      <rect
         style="fill:#3cb4e3;fill-opacity:1;stroke:none;stroke-width:0.839365"
         id="rect4255-9-5-8"
         width="35.999996"
         height="7.1999998"
         x="0"
         y="28.799995" />
    </pattern>
    <pattern
       patternUnits="userSpaceOnUse"
       width="36"
       height="35.999996"
       id="pattern4532">
      <rect
         style="fill:url(#pattern4530);stroke:none"
         width="36"
         height="35.999996"
         x="0"
         y="0"
         id="rect4445" />
    </pattern>
  </defs>
  <sodipodi:namedview
     pagecolor="#ffffff"
     bordercolor="#666666"
     borderopacity="1"
     objecttolerance="10"
     gridtolerance="10"
     guidetolerance="10"
     inkscape:pageopacity="0"
     inkscape:pageshadow="2"
     inkscape:window-width="1837"
     inkscape:window-height="1051"
     id="namedview2933"
     showgrid="false"
     inkscape:zoom="12.222222"
     inkscape:cx="8.4113464"
     inkscape:cy="15.234293"
     inkscape:window-x="-9"
     inkscape:window-y="-9"
     inkscape:window-maximized="1"
     inkscape:current-layer="svg2931" />
  <path
     fill="#FFAC33"
     d="M 11.792,6.062 11.781,9.386 17.129,8 14.193,6 Z m 21.458,17.42 c 0,-1.138 0.761,-2.071 1.75,-2.238 V 9.585 C 31,8.623 1,16.776 1,16.776 v 3.536 c 1.564,0.294 2.75,1.662 2.75,3.312 0,1.65 -1.186,3.02 -2.75,3.314 v 7.716 l 34,-6.482 v -2.451 c -0.989,-0.168 -1.75,-1.102 -1.75,-2.239 z"
     id="path2923"
     style="fill:url(#pattern4537);fill-opacity:1" />
  <path
     fill="#FFD983"
     d="M15.585 2.242l-3.843 3.843c.737.172 1.258.591 1.258 1.082 0 .645-.896 1.167-2 1.167-.474 0-.903-.1-1.245-.26L1 16.828c13.167-2.911 22.042-5.286 34.1-7.226-4.862-6.482-16.273-7.36-19.515-7.36z"
     id="path2925"
     style="fill:#6ee6ff;fill-opacity:1" />
  <path
     fill="#FFAC33"
     d="M20 5.167c0 .645-.896 1.167-2 1.167s-2-.522-2-1.167S16.896 4 18 4s2 .522 2 1.167zm-4.928 6.395c0 .978-1.359 1.771-3.036 1.771S9 12.54 9 11.562c0-.977 1.359-1.771 3.036-1.771 1.676.001 3.036.794 3.036 1.771zM29 8.352c0 1.094-1.521 1.981-3.396 1.981s-3.396-.887-3.396-1.981 1.521-1.981 3.396-1.981S29 7.258 29 8.352z"
     id="path2927"
     style="fill:#55cdfc;fill-opacity:1" />
  <path
     fill="#F4900C"
     d="m 33.625,15.62 c 0,1.332 -0.979,2.411 -2.188,2.411 -1.209,0 -2.188,-1.079 -2.188,-2.411 0,-1.332 0.979,-2.411 2.188,-2.411 1.209,0 2.188,1.079 2.188,2.411 z m -22.25,4.862 c 0,1.255 -0.923,2.272 -2.062,2.272 -1.139,0 -2.062,-1.018 -2.062,-2.272 0,-1.256 0.923,-2.273 2.062,-2.273 1.139,0 2.062,1.018 2.062,2.273 z m 17.156,4.98 c -0.503,0.602 -1.355,0.72 -1.903,0.262 -0.547,-0.457 -0.582,-1.317 -0.077,-1.919 0.505,-0.605 1.356,-0.722 1.903,-0.265 0.548,0.458 0.582,1.317 0.077,1.922 z m -9.684,-7.378 c -0.677,0.811 -1.825,0.97 -2.562,0.353 -0.736,-0.615 -0.783,-1.773 -0.104,-2.583 0.68,-0.814 1.826,-0.971 2.562,-0.356 0.737,0.616 0.784,1.773 0.104,2.586 z m 0.873,10.015 c -1.2,1.604 -3.354,2.021 -4.808,0.933 -1.455,-1.088 -1.663,-3.272 -0.463,-4.875 1.2,-1.605 3.354,-2.022 4.808,-0.935 1.455,1.088 1.663,3.272 0.463,4.877 z"
     id="path2929"
     style="mix-blend-mode:darken;fill:#6e506e;fill-opacity:0.3956044" />
</svg>
