<?xml version="1.0" encoding="UTF-8" standalone="no"?>
<svg
   xmlns:dc="http://purl.org/dc/elements/1.1/"
   xmlns:cc="http://creativecommons.org/ns#"
   xmlns:rdf="http://www.w3.org/1999/02/22-rdf-syntax-ns#"
   xmlns:svg="http://www.w3.org/2000/svg"
   xmlns="http://www.w3.org/2000/svg"
   xmlns:xlink="http://www.w3.org/1999/xlink"
   xmlns:sodipodi="http://sodipodi.sourceforge.net/DTD/sodipodi-0.dtd"
   xmlns:inkscape="http://www.inkscape.org/namespaces/inkscape"
   viewBox="0 0 36 36"
   version="1.1"
   id="svg6998"
   sodipodi:docname="transBurrito.svg"
   inkscape:version="1.0.2-2 (e86c870879, 2021-01-15)"
   inkscape:export-filename="C:\Users\tacos\Documents\random things\twemoji\transmoji\transmoji\Food\transBurrito.png"
   inkscape:export-xdpi="581.33002"
   inkscape:export-ydpi="581.33002">
  <metadata
     id="metadata7004">
    <rdf:RDF>
      <cc:Work
         rdf:about="">
        <dc:format>image/svg+xml</dc:format>
        <dc:type
           rdf:resource="http://purl.org/dc/dcmitype/StillImage" />
        <dc:title></dc:title>
      </cc:Work>
    </rdf:RDF>
  </metadata>
  <defs
     id="defs7002">
    <pattern
       inkscape:collect="always"
       xlink:href="#pattern7091"
       id="pattern7661"
       patternTransform="matrix(0.64467589,0.62501576,-0.36436356,0.37582482,14.463548,0.6363961)" />
    <pattern
       inkscape:collect="always"
       xlink:href="#pattern7046"
       id="pattern7659"
       patternTransform="matrix(0.64116678,0.62183512,-0.36708839,0.37850046,14.521402,0.63639611)" />
    <pattern
       inkscape:collect="always"
       xlink:href="#pattern7046"
       id="pattern7657"
       patternTransform="matrix(0.65230669,0.61616649,-0.35708976,0.37803424,14.463548,0.6363961)" />
    <pattern
       inkscape:collect="always"
       xlink:href="#pattern4393"
       id="pattern7089" />
    <pattern
       inkscape:collect="always"
       xlink:href="#pattern4438"
       id="pattern7044" />
    <pattern
       patternUnits="userSpaceOnUse"
       width="35.999999"
       height="35.999996"
       patternTransform="translate(36.000003,35.999999)"
       id="pattern4438">
      <rect
         style="fill:#3cb4e3;fill-opacity:1;stroke:none;stroke-width:0.839365"
         id="rect4255-3-1"
         width="35.999996"
         height="7.1999998"
         x="0"
         y="0" />
      <rect
         style="fill:#de8f9f;fill-opacity:1;stroke:none;stroke-width:0.839365"
         id="rect4255-5-2-9"
         width="35.999996"
         height="7.1999998"
         x="0"
         y="7.1999989" />
      <rect
         style="fill:#d6d6d6;fill-opacity:1;stroke:none;stroke-width:0.839365"
         id="rect4255-8-0-9"
         width="35.999996"
         height="7.1999998"
         x="3.6044385e-06"
         y="14.399998" />
      <rect
         style="fill:#de8f9f;fill-opacity:1;stroke:none;stroke-width:0.839365"
         id="rect4255-2-1-7"
         width="35.999996"
         height="7.1999998"
         x="0"
         y="21.6" />
      <rect
         style="fill:#3cb4e3;fill-opacity:1;stroke:none;stroke-width:0.839365"
         id="rect4255-9-5-8"
         width="35.999996"
         height="7.1999998"
         x="0"
         y="28.799995" />
    </pattern>
    <pattern
       patternUnits="userSpaceOnUse"
       width="36"
       height="35.999996"
       id="pattern7046">
      <rect
         style="fill:url(#pattern7044);stroke:none"
         width="36"
         height="35.999996"
         x="0"
         y="0"
         id="rect4445" />
    </pattern>
    <pattern
       patternUnits="userSpaceOnUse"
       width="35.999998"
       height="36.000003"
       patternTransform="translate(0,35.999999)"
       id="pattern4393">
      <rect
         style="fill:#55cdfc;fill-opacity:1;stroke:none;stroke-width:0.839365"
         id="rect4255-4"
         width="35.999996"
         height="7.1999998"
         x="0"
         y="0" />
      <rect
         style="fill:#f7a8b8;fill-opacity:1;stroke:none;stroke-width:0.839365"
         id="rect4255-5-0"
         width="35.999996"
         height="7.1999998"
         x="0"
         y="7.1999989" />
      <rect
         style="fill:#efefef;fill-opacity:1;stroke:none;stroke-width:0.839365"
         id="rect4255-8-2"
         width="35.999996"
         height="7.1999998"
         x="2.7033288e-06"
         y="14.399998" />
      <rect
         style="fill:#f7a8b8;fill-opacity:1;stroke:none;stroke-width:0.839365"
         id="rect4255-2-4"
         width="35.999996"
         height="7.1999998"
         x="0"
         y="21.6" />
      <rect
         style="fill:#55cdfc;fill-opacity:1;stroke:none;stroke-width:0.839365"
         id="rect4255-9-1"
         width="35.999996"
         height="7.1999998"
         x="0"
         y="28.800003" />
    </pattern>
    <pattern
       patternUnits="userSpaceOnUse"
       width="35.999996"
       height="36.000004"
       id="pattern7091">
      <rect
         style="fill:url(#pattern7089);stroke:none"
         width="35.999996"
         height="36.000004"
         x="0"
         y="0"
         id="rect4400" />
    </pattern>
  </defs>
  <sodipodi:namedview
     pagecolor="#ffffff"
     bordercolor="#666666"
     borderopacity="1"
     objecttolerance="10"
     gridtolerance="10"
     guidetolerance="10"
     inkscape:pageopacity="0"
     inkscape:pageshadow="2"
     inkscape:window-width="1837"
     inkscape:window-height="1051"
     id="namedview7000"
     showgrid="false"
     inkscape:zoom="12.222222"
     inkscape:cx="-2.3515592"
     inkscape:cy="23.803386"
     inkscape:window-x="-9"
     inkscape:window-y="-9"
     inkscape:window-maximized="1"
     inkscape:current-layer="svg6998" />
  <path
     fill="#FFCC4D"
     d="M 26.302,13.489 26.128,13.315 16.946,4.179 c 2.814,3.28 2.163,7.785 -1.616,10.312 -3.672,2.455 -8.996,2.174 -12.389,-0.509 l 5.227,5.321 2.465,2.465 c 1.218,1.218 3.125,1.751 4.531,1.713 1.059,-0.028 1.834,-0.379 1.808,-1.009 -0.014,-0.362 0.189,-0.652 0.527,-0.881 1.086,-0.737 3.605,-0.828 5.108,-0.527 0.492,0.098 0.957,0.081 1.395,-0.013 1.333,-0.286 2.393,-1.352 3.034,-2.601 0.648,-1.264 0.867,-2.704 0.512,-3.689 l -0.01,-0.035 z"
     id="path6922"
     style="fill:url(#pattern7659);fill-opacity:1" />
  <path
     fill="#ffac33"
     d="m 19.014,17.471 c -0.389,-0.389 -1.118,-0.488 -1.629,-0.22 -0.511,0.267 -0.609,0.799 -0.22,1.189 0.389,0.39 1.118,0.488 1.629,0.22 0.511,-0.268 0.61,-0.8 0.22,-1.189 z"
     id="path6924"
     style="mix-blend-mode:darken;fill:#321432;fill-opacity:0.47999999" />
  <path
     fill="#d99e82"
     d="m 24.457,16.282 c -0.389,-0.389 -0.901,-0.271 -1.145,0.264 -0.243,0.535 -0.125,1.284 0.264,1.673 0.389,0.389 0.901,0.271 1.145,-0.264 0.243,-0.535 0.125,-1.283 -0.264,-1.673 z"
     id="path6926"
     style="mix-blend-mode:darken;fill:#503c50;fill-opacity:0.40000001" />
  <path
     fill="#ffac33"
     d="m 21.903,11.908 c -0.268,0.511 -0.799,0.609 -1.189,0.22 -0.39,-0.389 -0.488,-1.118 -0.22,-1.629 0.267,-0.511 0.799,-0.609 1.189,-0.22 0.39,0.389 0.488,1.118 0.22,1.629 z"
     id="path6928"
     style="mix-blend-mode:darken;fill:#321432;fill-opacity:0.47999999" />
  <path
     fill="#d99e82"
     d="m 12.747,21.064 c -0.584,0.195 -1.372,0.037 -1.761,-0.352 -0.389,-0.389 -0.232,-0.862 0.352,-1.057 0.584,-0.195 1.372,-0.037 1.761,0.352 0.389,0.39 0.232,0.863 -0.352,1.057 z"
     id="path6930"
     style="mix-blend-mode:darken;fill:#503c50;fill-opacity:0.40000001" />
  <path
     fill="#BDBDBD"
     d="M24.003 21.051c-.438.094-.903.112-1.395.013-1.503-.301-4.021-.209-5.108.527l13.022 13.022c2.486-.848 3.93-3.036 3.962-3.082l-10.481-10.48zm9.857.031l.018-.018-3.522-3.522c-1-2.113.775-3.433.071-4.137-.676-.676-2.715.027-4.124.084l1.236 1.236c.373.986.154 2.447-.501 3.725l8.928 8.928c.261-3.237-1.368-5.466-2.106-6.296z"
     id="path6932" />
  <path
     fill="#808285"
     d="M15.164 23.482c-1.405.037-3.313-.496-4.531-1.713l-1.761-1.761c-.176.528 0 1.409.352 1.761.704.704-.705 3.521 2.112 4.93 1.89.945 4.226 0 5.635 1.409 0 0 4.483 4.506 4.931 4.931.448.425 2.334 1.863 4.9 2.083l-11.638-11.64z"
     id="path6934" />
  <path
     fill="#A6A6A6"
     d="M17.5 21.591c-.338.229-.542.519-.527.881.025.63-.75.981-1.808 1.009L26.804 35.12c2.163.166 3.646-.481 3.718-.508L17.5 21.591z"
     id="path6936" />
  <path
     fill="#D8D8D8"
     d="M27.037 18.45c-.641 1.249-1.701 2.315-3.034 2.601l10.481 10.481c1.347-1.901 1.473-4.056 1.481-4.154l-8.928-8.928z"
     id="path6938" />
  <path
     fill="#FFAC33"
     d="M 3.155,7.407 C 3.224,7.103 3.36,6.802 3.59,6.572 4.236,5.926 5.064,5.29 6.167,5.264 6.878,5.247 7.702,5.355 8.668,5.939 l 7.069,0.059 C 15.493,5.592 15.196,5.2 14.83,4.834 12.302,2.306 7.795,1.899 4.765,3.926 3.334,4.882 2.497,6.21 2.268,7.611 2.524,7.404 2.855,7.327 3.155,7.407 Z M 15.747,6.016 15.738,6 H 15.734 Z M 2.959,9.842 C 2.936,9.823 2.908,9.815 2.886,9.793 2.755,9.662 2.684,9.499 2.642,9.331 2.505,9.296 2.378,9.23 2.263,9.142 2.184,8.643 2.187,8.135 2.263,7.641 2.094,8.716 2.289,9.831 2.861,10.856 L 2.86,10.854 C 2.779,10.517 2.803,10.16 2.959,9.842 Z"
     id="path6940"
     style="fill:url(#pattern7657);fill-opacity:1" />
  <path
     fill="#C1694F"
     d="M2.265 7.613l-.002.028.005-.029-.003.001z"
     id="path6942" />
  <path
     fill="#FFE8B6"
     d="M 16.946,4.179 C 16.809,4.019 16.672,3.859 16.518,3.705 13.211,0.399 7.298,-0.165 3.355,2.516 -0.48,5.124 -1.043,10.124 2.166,13.301 c 0.244,0.242 0.504,0.467 0.774,0.68 3.393,2.683 8.718,2.964 12.389,0.509 3.78,-2.526 4.431,-7.031 1.617,-10.311 z M 15.738,6 15.747,6.016 c 1.428,2.397 0.759,5.337 -1.826,7.066 -3.03,2.027 -7.537,1.62 -10.066,-0.909 C 3.443,11.761 3.118,11.317 2.86,10.856 2.288,9.831 2.093,8.716 2.262,7.641 L 2.264,7.613 2.267,7.611 C 2.497,6.21 3.334,4.882 4.765,3.926 7.796,1.9 12.302,2.306 14.831,4.835 c 0.366,0.366 0.663,0.758 0.907,1.164"
     id="path6944"
     style="fill:url(#pattern7661);fill-opacity:1" />
  <path
     fill="#C1694F"
     d="M13.921 13.082c2.585-1.729 3.254-4.669 1.826-7.066L15.734 6h.004l-.001-.002-7.069-.059c-.967-.584-1.791-.692-2.501-.675-1.103.026-1.931.662-2.577 1.308-.23.23-.366.531-.435.835-.3-.08-.631-.003-.888.204l-.005.029c-.076.494-.079 1.002 0 1.501.116.089.243.155.38.19.043.168.113.331.244.462.022.022.05.03.073.049-.156.318-.18.675-.099 1.012l.001.002c.257.461.583.906.995 1.317 2.528 2.529 7.035 2.936 10.065.909z"
     id="path6946"
     style="fill:#239bca;fill-opacity:1" />
  <path
     fill="#F4900C"
     d="M8.668 6.15l7.279.271c-.124-.276-.281-.554-.484-.834-2.6-1.922-6.547-2.087-9.29-.253l-.006.035c.71-.016 1.534.197 2.501.781z"
     id="path6948"
     style="fill:#239bca;fill-opacity:1" />
  <circle
     fill="#D99E82"
     cx="5.703"
     cy="8.386"
     r=".996"
     id="circle6950"
     style="fill:#ca7b8b;fill-opacity:1" />
  <circle
     fill="#D99E82"
     cx="7.112"
     cy="10.499"
     r="1.494"
     id="circle6952"
     style="fill:#ca7b8b;fill-opacity:1" />
  <circle
     fill="#D99E82"
     cx="9.929"
     cy="11.203"
     r=".996"
     id="circle6954"
     style="fill:#ca7b8b;fill-opacity:1" />
  <circle
     fill="#D99E82"
     cx="4.295"
     cy="7.682"
     r=".498"
     id="circle6956"
     style="fill:#ca7b8b;fill-opacity:1" />
  <circle
     fill="#D99E82"
     cx="7.816"
     cy="13.316"
     r=".996"
     id="circle6958"
     style="fill:#ca7b8b;fill-opacity:1" />
  <circle
     fill="#FFD983"
     cx="6.408"
     cy="5.568"
     r="1.494"
     id="circle6960"
     style="fill:#bebebe;fill-opacity:1" />
  <path
     fill="#D99E82"
     d="M10.634 13.316c-.389-.389-1.019-.389-1.409 0-.281.281-.351.685-.228 1.035.629.035 1.262.005 1.883-.097.08-.327.009-.682-.246-.938z"
     id="path6962"
     style="fill:#ca7b8b;fill-opacity:1" />
  <path
     fill="#77B255"
     d="M16.269 7.682c-.389-.389-1.02-.389-1.409 0-.129.129-.211.285-.255.45-.164.043-.321.126-.45.254.389-.389.39-1.021.001-1.41.385-.385.393-1.013.009-1.398l-.016-.016c-.386-.386-1.015-.382-1.402.005-.131-.131-.293-.201-.461-.244-.043-.168-.113-.329-.245-.46-.232-.232-.55-.322-.851-.278-.058-.413-.239-.813-.557-1.131-.777-.777-2.037-.777-2.816.002-.779.779-.779 2.039-.001 2.817.532.531 1.285.691 1.959.497.043.073.092.144.154.207-.389.389-.389 1.02 0 1.409.226.226.532.316.826.28.066.187.169.363.319.512.396.396.974.497 1.464.307.048.112.117.218.208.31-.389.389-.389 1.02 0 1.409s1.019.389 1.409 0c.075.075.16.13.249.176l.03.016c.37.175.823.114 1.129-.192.389-.389.389-1.02 0-1.409.094-.094.163-.203.211-.318.001-.04-.001-.079-.001-.119.181-.039.353-.127.494-.268.391-.389.391-1.02.002-1.408z"
     id="path6964"
     style="fill:#ca7b8b;fill-opacity:1" />
  <circle
     fill="#A6D388"
     cx="14.86"
     cy="8.386"
     r=".498"
     id="circle6966"
     style="fill:#e596a6;fill-opacity:1" />
  <circle
     fill="#FFD983"
     cx="12.747"
     cy="12.612"
     r=".996"
     id="circle6968"
     style="fill:#bebebe;fill-opacity:1" />
  <path
     fill="#FFD983"
     d="M12.395 9.442c-.488-.488-1.226-.562-1.797-.234-.073-.17-.176-.331-.316-.47-.139-.139-.3-.243-.47-.316.328-.571.254-1.309-.234-1.797-.584-.584-1.529-.584-2.113 0-.584.584-.584 1.529 0 2.113.139.139.3.243.47.316-.328.571-.254 1.309.234 1.797s1.226.562 1.797.234c.073.17.176.331.316.47.584.584 1.529.584 2.113 0 .584-.583.584-1.529 0-2.113z"
     id="path6970"
     style="fill:#bebebe;fill-opacity:1" />
  <circle
     fill="#FFE8B6"
     cx="10.458"
     cy="10.323"
     r="1.245"
     id="circle6972"
     style="fill:#d2d2d2;fill-opacity:1" />
  <circle
     fill="#FFE8B6"
     cx="9.049"
     cy="8.21"
     r=".747"
     id="circle6974"
     style="fill:#d2d2d2;fill-opacity:1" />
  <circle
     fill="#FFE8B6"
     cx="7.64"
     cy="6.801"
     r=".747"
     id="circle6976"
     style="fill:#d2d2d2;fill-opacity:1" />
  <circle
     fill="#A6D388"
     cx="8.521"
     cy="4.864"
     r=".498"
     id="circle6978"
     style="fill:#e596a6;fill-opacity:1" />
  <circle
     fill="#77B255"
     cx="14.86"
     cy="6.273"
     r=".996"
     id="circle6980"
     style="fill:#42bae9;fill-opacity:1" />
  <circle
     fill="#A6D388"
     cx="14.156"
     cy="8.386"
     r=".996"
     id="circle6982"
     style="fill:#e596a6;fill-opacity:1" />
  <path
     fill="#A6D388"
     d="M13.099 5.921c-.219-.219-.488-.355-.77-.41-.014-.235-.107-.466-.286-.646-.389-.389-1.019-.389-1.409 0-.389-.389-1.019-.389-1.409 0-.389.389-.389 1.019 0 1.409s1.019.389 1.409 0c.021.021.046.037.069.056-.269.556-.179 1.242.283 1.705.584.584 1.529.584 2.113 0 .584-.585.584-1.53 0-2.114z"
     id="path6984"
     style="fill:#e596a6;fill-opacity:1" />
  <circle
     fill="#DD2E44"
     cx="10.458"
     cy="3.984"
     r=".747"
     id="circle6986"
     style="fill:#5bd3ff;fill-opacity:1" />
  <circle
     fill="#DD2E44"
     cx="14.684"
     cy="6.801"
     r=".747"
     id="circle6988"
     style="fill:#5bd3ff;fill-opacity:1" />
  <circle
     fill="#DD2E44"
     cx="14.156"
     cy="9.795"
     r=".996"
     id="circle6990"
     style="fill:#5bd3ff;fill-opacity:1" />
  <path
     fill="#77B255"
     d="M13.451 3.455c-.389-.389-1.02-.389-1.409 0s-.389 1.02 0 1.409c-.389.389-.389 1.02 0 1.409s1.019.389 1.409 0c.389-.389.389-1.02 0-1.409.389-.389.389-1.02 0-1.409z"
     id="path6992"
     style="fill:#42bae9;fill-opacity:1" />
  <circle
     fill="#DD2E44"
     cx="12.042"
     cy="6.273"
     r=".996"
     id="circle6994"
     style="fill:#5bd3ff;fill-opacity:1" />
  <circle
     fill="#DD2E44"
     cx="13.451"
     cy="4.16"
     r=".498"
     id="circle6996"
     style="fill:#5bd3ff;fill-opacity:1" />
</svg>
