<?xml version="1.0" encoding="UTF-8" standalone="no"?>
<svg
   xmlns:dc="http://purl.org/dc/elements/1.1/"
   xmlns:cc="http://creativecommons.org/ns#"
   xmlns:rdf="http://www.w3.org/1999/02/22-rdf-syntax-ns#"
   xmlns:svg="http://www.w3.org/2000/svg"
   xmlns="http://www.w3.org/2000/svg"
   xmlns:xlink="http://www.w3.org/1999/xlink"
   xmlns:sodipodi="http://sodipodi.sourceforge.net/DTD/sodipodi-0.dtd"
   xmlns:inkscape="http://www.inkscape.org/namespaces/inkscape"
   viewBox="0 0 36 36"
   version="1.1"
   id="svg4566"
   sodipodi:docname="transBeer.svg"
   inkscape:version="1.0.2-2 (e86c870879, 2021-01-15)"
   inkscape:export-filename="C:\Users\tacos\Documents\random things\twemoji\transmoji\transmoji\Food\transBeer.png"
   inkscape:export-xdpi="584"
   inkscape:export-ydpi="584">
  <metadata
     id="metadata4572">
    <rdf:RDF>
      <cc:Work
         rdf:about="">
        <dc:format>image/svg+xml</dc:format>
        <dc:type
           rdf:resource="http://purl.org/dc/dcmitype/StillImage" />
        <dc:title></dc:title>
      </cc:Work>
    </rdf:RDF>
  </metadata>
  <defs
     id="defs4570">
    <pattern
       inkscape:collect="always"
       xlink:href="#pattern4393"
       id="pattern5156" />
    <pattern
       patternUnits="userSpaceOnUse"
       width="35.999998"
       height="36.000003"
       patternTransform="translate(0,35.999999)"
       id="pattern4393">
      <rect
         style="fill:#55cdfc;fill-opacity:1;stroke:none;stroke-width:0.839365"
         id="rect4255-4"
         width="35.999996"
         height="7.1999998"
         x="0"
         y="0" />
      <rect
         style="fill:#f7a8b8;fill-opacity:1;stroke:none;stroke-width:0.839365"
         id="rect4255-5-0"
         width="35.999996"
         height="7.1999998"
         x="0"
         y="7.1999989" />
      <rect
         style="fill:#efefef;fill-opacity:1;stroke:none;stroke-width:0.839365"
         id="rect4255-8-2"
         width="35.999996"
         height="7.1999998"
         x="2.7033288e-06"
         y="14.399998" />
      <rect
         style="fill:#f7a8b8;fill-opacity:1;stroke:none;stroke-width:0.839365"
         id="rect4255-2-4"
         width="35.999996"
         height="7.1999998"
         x="0"
         y="21.6" />
      <rect
         style="fill:#55cdfc;fill-opacity:1;stroke:none;stroke-width:0.839365"
         id="rect4255-9-1"
         width="35.999996"
         height="7.1999998"
         x="0"
         y="28.800003" />
    </pattern>
    <pattern
       patternUnits="userSpaceOnUse"
       width="35.999996"
       height="36.000004"
       id="pattern5158">
      <rect
         style="fill:url(#pattern5156);stroke:none"
         width="35.999996"
         height="36.000004"
         x="0"
         y="0"
         id="rect4400" />
    </pattern>
    <pattern
       patternUnits="userSpaceOnUse"
       width="35.999995"
       height="36.000003"
       patternTransform="translate(71.999998,35.999999)"
       id="pattern2630">
      <rect
         style="fill:#28a0cf;fill-opacity:1;stroke:none;stroke-width:0.839365"
         id="rect4255-3-9-5"
         width="35.999996"
         height="7.1999998"
         x="0"
         y="0" />
      <rect
         style="fill:#ca7b8b;fill-opacity:1;stroke:none;stroke-width:0.839365"
         id="rect4255-5-2-6-3"
         width="35.999996"
         height="7.1999998"
         x="0"
         y="7.2000027" />
      <rect
         style="fill:#c2c2c2;fill-opacity:1;stroke:none;stroke-width:0.839365"
         id="rect4255-8-0-2-1"
         width="35.999996"
         height="7.1999998"
         x="0"
         y="14.400002" />
      <rect
         style="fill:#ca7b8b;fill-opacity:1;stroke:none;stroke-width:0.839365"
         id="rect4255-2-1-1-8"
         width="35.999996"
         height="7.1999998"
         x="0"
         y="21.600004" />
      <rect
         style="fill:#28a0cf;fill-opacity:1;stroke:none;stroke-width:0.839365"
         id="rect4255-9-5-1-0"
         width="35.999996"
         height="7.1999998"
         x="0"
         y="28.800003" />
    </pattern>
  </defs>
  <sodipodi:namedview
     pagecolor="#ffffff"
     bordercolor="#666666"
     borderopacity="1"
     objecttolerance="10"
     gridtolerance="10"
     guidetolerance="10"
     inkscape:pageopacity="0"
     inkscape:pageshadow="2"
     inkscape:window-width="1837"
     inkscape:window-height="1051"
     id="namedview4568"
     showgrid="false"
     inkscape:zoom="17.284832"
     inkscape:cx="16.695227"
     inkscape:cy="19.186157"
     inkscape:window-x="-9"
     inkscape:window-y="-9"
     inkscape:window-maximized="1"
     inkscape:current-layer="svg4566" />
  <path
     fill="#FFAC33"
     d="M31 5.718h-6v4h4s2 0 2 2v12c0 2-2 2-2 2h-4v4h6c2.206 0 4-1.794 4-4v-16c0-2.206-1.794-4-4-4z"
     id="path4556"
     style="fill:url(#pattern2630);fill-opacity:1.0" />
  <path
     fill="#FFCC4D"
     d="M27 6H3v26c0 2.209 1.791 4 4 4h16c2.209 0 4-1.791 4-4V6z"
     id="path4558"
     style="fill:url(#pattern5158);fill-opacity:1.0" />
  <path
     fill="#f4900c"
     d="m 8.5,32 c -0.552,0 -1,-0.447 -1,-1 V 15 c 0,-0.552 0.448,-1 1,-1 0.552,0 1,0.448 1,1 v 16 c 0,0.553 -0.448,1 -1,1 z m 6.5,0 c -0.552,0 -1,-0.447 -1,-1 V 15 c 0,-0.552 0.448,-1 1,-1 0.552,0 1,0.448 1,1 v 16 c 0,0.553 -0.448,1 -1,1 z m 6.5,0 c -0.553,0 -1,-0.447 -1,-1 V 15 c 0,-0.552 0.447,-1 1,-1 0.553,0 1,0.448 1,1 v 16 c 0,0.553 -0.447,1 -1,1 z"
     id="path4560"
     style="mix-blend-mode:darken;fill:#606069;fill-opacity:0.50370371" />
  <path
     fill="#FFAC33"
     d="M3 5v7.445c.59.344 1.268.555 2 .555 1.674 0 3.104-1.031 3.701-2.491.35.302.801.491 1.299.491.677 0 1.273-.338 1.635-.853C12.345 11.258 13.583 12 15 12c1.301 0 2.445-.631 3.176-1.593C18.54 11.338 19.44 12 20.5 12c.949 0 1.765-.535 2.188-1.314l.147-.361c.497.271 1.059.439 1.665.439.981 0 1.865-.406 2.5-1.056V5H3z"
     id="path4562"
     style="fill:url(#pattern2630);fill-opacity:1.0" />
  <path
     fill="#EEE"
     d="M24 0H4C2.343 0 1 1.343 1 3v4c0 2.209 1.791 4 4 4 1.674 0 3.104-1.031 3.701-2.491.35.302.801.491 1.299.491.677 0 1.273-.338 1.635-.853C12.345 9.258 13.583 10 15 10c1.301 0 2.445-.631 3.176-1.593C18.54 9.338 19.44 10 20.5 10c.949 0 1.765-.535 2.188-1.314.398.195.839.314 1.312.314 1.657 0 3-1.343 3-3V3c0-1.657-1.343-3-3-3z"
     id="path4564"
     style="fill:#a7edff;fill-opacity:1" />
</svg>
