<?xml version="1.0" encoding="UTF-8" standalone="no"?>
<svg
   xmlns:dc="http://purl.org/dc/elements/1.1/"
   xmlns:cc="http://creativecommons.org/ns#"
   xmlns:rdf="http://www.w3.org/1999/02/22-rdf-syntax-ns#"
   xmlns:svg="http://www.w3.org/2000/svg"
   xmlns="http://www.w3.org/2000/svg"
   xmlns:xlink="http://www.w3.org/1999/xlink"
   xmlns:sodipodi="http://sodipodi.sourceforge.net/DTD/sodipodi-0.dtd"
   xmlns:inkscape="http://www.inkscape.org/namespaces/inkscape"
   viewBox="0 0 36 36"
   version="1.1"
   id="svg4581"
   sodipodi:docname="transSalt.svg"
   inkscape:version="1.0.2-2 (e86c870879, 2021-01-15)"
   inkscape:export-filename="C:\Users\tacos\Documents\random things\twemoji\transmoji\transmoji\Food\transSalt.png"
   inkscape:export-xdpi="581.33331"
   inkscape:export-ydpi="581.33331">
  <metadata
     id="metadata4587">
    <rdf:RDF>
      <cc:Work
         rdf:about="">
        <dc:format>image/svg+xml</dc:format>
        <dc:type
           rdf:resource="http://purl.org/dc/dcmitype/StillImage" />
        <dc:title></dc:title>
      </cc:Work>
    </rdf:RDF>
  </metadata>
  <defs
     id="defs4585">
    <pattern
       inkscape:collect="always"
       xlink:href="#pattern5253"
       id="pattern5258"
       patternTransform="matrix(0.65608894,0,0,0.61912662,3.5869599,12.84363)" />
    <pattern
       inkscape:collect="always"
       xlink:href="#pattern4393-2"
       id="pattern5251" />
    <pattern
       patternUnits="userSpaceOnUse"
       width="35.999998"
       height="36.000003"
       patternTransform="translate(0,35.999999)"
       id="pattern4393">
      <rect
         style="fill:#55cdfc;fill-opacity:1;stroke:none;stroke-width:0.839365"
         id="rect4255-4"
         width="35.999996"
         height="7.1999998"
         x="0"
         y="0" />
      <rect
         style="fill:#f7a8b8;fill-opacity:1;stroke:none;stroke-width:0.839365"
         id="rect4255-5-0"
         width="35.999996"
         height="7.1999998"
         x="0"
         y="7.1999989" />
      <rect
         style="fill:#efefef;fill-opacity:1;stroke:none;stroke-width:0.839365"
         id="rect4255-8-2"
         width="35.999996"
         height="7.1999998"
         x="2.7033288e-06"
         y="14.399998" />
      <rect
         style="fill:#f7a8b8;fill-opacity:1;stroke:none;stroke-width:0.839365"
         id="rect4255-2-4"
         width="35.999996"
         height="7.1999998"
         x="0"
         y="21.6" />
      <rect
         style="fill:#55cdfc;fill-opacity:1;stroke:none;stroke-width:0.839365"
         id="rect4255-9-1"
         width="35.999996"
         height="7.1999998"
         x="0"
         y="28.800003" />
    </pattern>
    <pattern
       patternUnits="userSpaceOnUse"
       width="35.999998"
       height="36.000003"
       patternTransform="translate(0,35.999999)"
       id="pattern4393-2">
      <rect
         style="fill:#55cdfc;fill-opacity:1;stroke:none;stroke-width:0.839365"
         id="rect4255-4-1"
         width="35.999996"
         height="7.1999998"
         x="0"
         y="0" />
      <rect
         style="fill:#f7a8b8;fill-opacity:1;stroke:none;stroke-width:0.839365"
         id="rect4255-5-0-0"
         width="35.999996"
         height="7.1999998"
         x="0"
         y="7.1999989" />
      <rect
         style="fill:#efefef;fill-opacity:1;stroke:none;stroke-width:0.839365"
         id="rect4255-8-2-4"
         width="35.999996"
         height="7.1999998"
         x="2.7033288e-06"
         y="14.399998" />
      <rect
         style="fill:#f7a8b8;fill-opacity:1;stroke:none;stroke-width:0.839365"
         id="rect4255-2-4-8"
         width="35.999996"
         height="7.1999998"
         x="0"
         y="21.6" />
      <rect
         style="fill:#55cdfc;fill-opacity:1;stroke:none;stroke-width:0.839365"
         id="rect4255-9-1-0"
         width="35.999996"
         height="7.1999998"
         x="0"
         y="28.800003" />
    </pattern>
    <pattern
       patternUnits="userSpaceOnUse"
       width="35.999996"
       height="36.000004"
       id="pattern5253">
      <rect
         style="fill:url(#pattern5251);stroke:none"
         width="35.999996"
         height="36.000004"
         x="0"
         y="0"
         id="rect4400" />
    </pattern>
  </defs>
  <sodipodi:namedview
     pagecolor="#ffffff"
     bordercolor="#666666"
     borderopacity="1"
     objecttolerance="10"
     gridtolerance="10"
     guidetolerance="10"
     inkscape:pageopacity="0"
     inkscape:pageshadow="2"
     inkscape:window-width="1837"
     inkscape:window-height="1051"
     id="namedview4583"
     showgrid="false"
     inkscape:zoom="12.222222"
     inkscape:cx="1.526437"
     inkscape:cy="22.587007"
     inkscape:window-x="-9"
     inkscape:window-y="-9"
     inkscape:window-maximized="1"
     inkscape:current-layer="svg4581" />
  <path
     fill="#66757F"
     d="M26 4c0 3-3.582 6-8 6s-8-3-8-6c0-4.418 6-4 8-4s8-.418 8 4z"
     id="path4565" />
  <path
     fill="#CCD6DD"
     d="M24.306 12H11.694c-.978 0-1.812.707-1.973 1.671l-3.333 20C6.185 34.89 7.125 36 8.361 36h19.278c1.236 0 2.176-1.11 1.973-2.329l-3.333-20c-.161-.964-.996-1.671-1.973-1.671z"
     id="path4567" />
  <path
     fill="#F5F8FA"
     d="m 19.344,14 h -6.802 c -0.489,0 -0.906,0.353 -0.986,0.836 l -3,18 C 8.453,33.445 8.923,34 9.541,34 h 10.427 z m 5.101,0.836 C 24.365,14.353 23.947,14 23.459,14 h -2.413 l 0.909,20 h 4.505 c 0.618,0 1.088,-0.555 0.986,-1.164 z"
     id="path4569"
     style="fill:url(#pattern5258);fill-opacity:1" />
  <ellipse
     fill="#CCD6DD"
     cx="15"
     cy="1.5"
     rx="1.2"
     ry=".6"
     id="ellipse4571" />
  <ellipse
     fill="#CCD6DD"
     cx="21"
     cy="1.5"
     rx="1.2"
     ry=".6"
     id="ellipse4573" />
  <ellipse
     fill="#CCD6DD"
     cx="18"
     cy="3.5"
     rx="1.2"
     ry=".6"
     id="ellipse4575" />
  <path
     fill="#66757F"
     d="M25 12H11V9.528c0-.844.684-1.262 1.528-1.262h10.944c.844 0 1.528.418 1.528 1.262V12z"
     id="path4577" />
  <path
     fill="#CCD6DD"
     d="M23.472 8H12.528c-.657 0-1.213.417-1.429 1H24.9c-.215-.583-.77-1-1.428-1zM11 10h14v1H11zm0 2h14v.5H11z"
     id="path4579" />
</svg>
