<?xml version="1.0" encoding="UTF-8" standalone="no"?>
<svg
   xmlns:dc="http://purl.org/dc/elements/1.1/"
   xmlns:cc="http://creativecommons.org/ns#"
   xmlns:rdf="http://www.w3.org/1999/02/22-rdf-syntax-ns#"
   xmlns:svg="http://www.w3.org/2000/svg"
   xmlns="http://www.w3.org/2000/svg"
   xmlns:sodipodi="http://sodipodi.sourceforge.net/DTD/sodipodi-0.dtd"
   xmlns:inkscape="http://www.inkscape.org/namespaces/inkscape"
   viewBox="0 0 36 36"
   version="1.1"
   id="svg5268"
   sodipodi:docname="transPopcorn.svg"
   inkscape:version="1.0.2-2 (e86c870879, 2021-01-15)"
   inkscape:export-filename="C:\Users\tacos\Documents\random things\twemoji\transmoji\transmoji\Food\transPopcorn.png"
   inkscape:export-xdpi="584"
   inkscape:export-ydpi="584">
  <metadata
     id="metadata5274">
    <rdf:RDF>
      <cc:Work
         rdf:about="">
        <dc:format>image/svg+xml</dc:format>
        <dc:type
           rdf:resource="http://purl.org/dc/dcmitype/StillImage" />
        <dc:title />
      </cc:Work>
    </rdf:RDF>
  </metadata>
  <defs
     id="defs5272">
    <pattern
       patternUnits="userSpaceOnUse"
       width="35.999998"
       height="36.000003"
       patternTransform="translate(0,35.999999)"
       id="pattern4393">
      <rect
         style="fill:#55cdfc;fill-opacity:1;stroke:none;stroke-width:0.839365"
         id="rect4255-4"
         width="35.999996"
         height="7.1999998"
         x="0"
         y="0" />
      <rect
         style="fill:#f7a8b8;fill-opacity:1;stroke:none;stroke-width:0.839365"
         id="rect4255-5-0"
         width="35.999996"
         height="7.1999998"
         x="0"
         y="7.1999989" />
      <rect
         style="fill:#efefef;fill-opacity:1;stroke:none;stroke-width:0.839365"
         id="rect4255-8-2"
         width="35.999996"
         height="7.1999998"
         x="2.7033288e-06"
         y="14.399998" />
      <rect
         style="fill:#f7a8b8;fill-opacity:1;stroke:none;stroke-width:0.839365"
         id="rect4255-2-4"
         width="35.999996"
         height="7.1999998"
         x="0"
         y="21.6" />
      <rect
         style="fill:#55cdfc;fill-opacity:1;stroke:none;stroke-width:0.839365"
         id="rect4255-9-1"
         width="35.999996"
         height="7.1999998"
         x="0"
         y="28.800003" />
    </pattern>
  </defs>
  <sodipodi:namedview
     pagecolor="#ffffff"
     bordercolor="#666666"
     borderopacity="1"
     objecttolerance="10"
     gridtolerance="10"
     guidetolerance="10"
     inkscape:pageopacity="0"
     inkscape:pageshadow="2"
     inkscape:window-width="1837"
     inkscape:window-height="1051"
     id="namedview5270"
     showgrid="false"
     inkscape:zoom="12.222222"
     inkscape:cx="-1.1191046"
     inkscape:cy="21.902278"
     inkscape:window-x="-9"
     inkscape:window-y="-9"
     inkscape:window-maximized="1"
     inkscape:current-layer="svg5268"
     inkscape:document-rotation="0" />
  <path
     style="fill:#ccc7cc;fill-opacity:1"
     d="M 31.301,11 H 4.668 c -1.657,0 -3,1.343 -3,3 0,1.657 1.343,3 3,3 0.182,0 0.357,-0.023 0.53,-0.053 L 5.182,17 5.819,31.004 C 5.918,33.202 7.8,35 10,35 h 16 c 2.2,0 4.082,-1.798 4.182,-3.996 L 30.818,17 30.803,16.95 c 0.163,0.027 0.327,0.05 0.498,0.05 1.657,0 3,-1.343 3,-3 0,-1.657 -1.344,-3 -3,-3 z"
     id="path5248" />
  <path
     style="fill:#08b9ff;fill-opacity:1"
     d="m 5.16,17 0.68,14.003 c 0.054,1.342 0.776,2.528 1.828,3.254 V 17 Z"
     id="path5845" />
  <path
     style="fill:#f593a7;fill-opacity:1"
     d="m 10.668,17 h 3 v 18 h -3 z"
     id="path5843" />
  <path
     style="fill:#f2f2f2;fill-opacity:1"
     d="M 16.668,35 V 17 h 3 v 18 z"
     id="path5841" />
  <path
     style="fill:#f593a7;fill-opacity:1"
     d="m 22.668,17 h 3 v 18 h -3 z"
     id="path5839" />
  <path
     style="fill:#08b9ff;fill-opacity:1"
     d="m 28.668,17 v 16.989 c 0.863,-0.734 1.444,-1.796 1.492,-2.986 L 30.84,17 Z"
     id="path5250" />
  <path
     opacity=".6"
     fill="#99AAB5"
     d="M5.16 17l.097 2h25.485l.098-2z"
     id="path5252"
     style="fill:#000000;fill-opacity:0.63703704" />
  <path
     fill="#FFD983"
     d="M30.929 11.07c.043-.184.071-.373.071-.57 0-.674-.27-1.284-.704-1.733.422-.266.704-.732.704-1.267 0-.829-.672-1.5-1.5-1.5-.197 0-.385.04-.558.11-.139-.513-.539-.913-1.052-1.052.07-.173.11-.36.11-.558 0-.829-.672-1.5-1.5-1.5-.191 0-.372.039-.54.104C25.769 1.913 24.745 1 23.5 1 22.119 1 21 2.119 21 3.5c0 .187.024.368.063.544-.64.113-1.19.469-1.563.969C19.044 4.402 18.322 4 17.5 4 16.119 4 15 5.119 15 6.5l.001.012c-.304-.23-.657-.395-1.047-.466C13.74 4.882 12.725 4 11.5 4c-1.228 0-2.245.887-2.455 2.055C8.866 6.027 8.687 6 8.5 6 6.567 6 5 7.567 5 9.5c0 .545.135 1.054.357 1.514C4.597 11.087 4 11.72 4 12.5c0 .829.672 1.5 1.5 1.5h25c.828 0 1.5-.671 1.5-1.5 0-.678-.453-1.245-1.071-1.43z"
     id="path5254"
     style="fill:#74d8ff;fill-opacity:1" />
  <g
     fill="#FFAC33"
     id="g5264"
     style="fill:#0cb0f0;fill-opacity:1">
    <circle
       cx="28"
       cy="8"
       r="1"
       id="circle5256"
       style="fill:#0cb0f0;fill-opacity:1" />
    <circle
       cx="24.5"
       cy="5.5"
       r="1.5"
       id="circle5258"
       style="fill:#0cb0f0;fill-opacity:1" />
    <circle
       cx="12"
       cy="7"
       r="1"
       id="circle5260"
       style="fill:#0cb0f0;fill-opacity:1" />
    <path
       d="M31 12.5c0-.828-.672-1.5-1.5-1.5-.658 0-1.212.427-1.414 1.017-.029-.002-.055-.017-.086-.017-.552 0-1 .448-1 1h3.908c.056-.157.092-.324.092-.5zM9.5 12c.198 0 .385.04.558.11.172-.638.75-1.11 1.442-1.11.828 0 1.5.671 1.5 1.5 0 .176-.036.343-.092.5h4.184c-.056-.157-.092-.324-.092-.5 0-.829.672-1.5 1.5-1.5.237 0 .459.06.658.158-.098-.199-.158-.421-.158-.658 0-.829.672-1.5 1.5-1.5s1.5.671 1.5 1.5c0 .198-.04.385-.11.558.638.172 1.11.749 1.11 1.442 0 .176-.036.343-.092.5h2.968l-.566-.5c.42-.367.69-.899.69-1.5 0-1.104-.896-2-2-2-.378 0-.728.111-1.03.294.015-.097.03-.193.03-.294 0-1.104-.896-2-2-2-.808 0-1.501.482-1.816 1.172C18.978 8.066 18.748 8 18.5 8c-.828 0-1.5.672-1.5 1.5 0 .198.04.385.11.558-.638.173-1.11.75-1.11 1.442 0 .198.04.385.11.558-.23.062-.438.177-.61.332-.266-.24-.614-.39-1-.39-.237 0-.459.06-.659.159.099-.2.159-.422.159-.659 0-.828-.672-1.5-1.5-1.5-.198 0-.385.04-.558.11C11.77 9.472 11.192 9 10.5 9 9.672 9 9 9.672 9 10.5c0 .198.04.385.11.558-.23.062-.438.177-.61.332-.266-.24-.614-.39-1-.39-.828 0-1.5.672-1.5 1.5 0 .176.036.343.092.5h2c.207-.581.756-1 1.408-1z"
       id="path5262"
       style="fill:#0cb0f0;fill-opacity:1" />
  </g>
  <path
     fill="#FFF"
     d="m 4,13 v 1 c 0,0.552 0.448,1 1,1 h 26 c 0.553,0 1,-0.448 1,-1 v -1 z"
     id="path5266"
     style="mix-blend-mode:normal;fill:#f2eef2;fill-opacity:1" />
</svg>
