<?xml version="1.0" encoding="UTF-8" standalone="no"?>
<svg
   xmlns:dc="http://purl.org/dc/elements/1.1/"
   xmlns:cc="http://creativecommons.org/ns#"
   xmlns:rdf="http://www.w3.org/1999/02/22-rdf-syntax-ns#"
   xmlns:svg="http://www.w3.org/2000/svg"
   xmlns="http://www.w3.org/2000/svg"
   xmlns:sodipodi="http://sodipodi.sourceforge.net/DTD/sodipodi-0.dtd"
   xmlns:inkscape="http://www.inkscape.org/namespaces/inkscape"
   viewBox="0 0 36 36"
   version="1.1"
   id="svg1011"
   sodipodi:docname="transBanana.svg"
   inkscape:version="1.0.2-2 (e86c870879, 2021-01-15)"
   inkscape:export-filename="C:\Users\tacos\Documents\random things\twemoji\transmoji\transmoji\Food\transBanana.png"
   inkscape:export-xdpi="584"
   inkscape:export-ydpi="584">
  <metadata
     id="metadata1017">
    <rdf:RDF>
      <cc:Work
         rdf:about="">
        <dc:format>image/svg+xml</dc:format>
        <dc:type
           rdf:resource="http://purl.org/dc/dcmitype/StillImage" />
        <dc:title></dc:title>
      </cc:Work>
    </rdf:RDF>
  </metadata>
  <defs
     id="defs1015">
    <pattern
       patternUnits="userSpaceOnUse"
       width="35.999998"
       height="36.000003"
       patternTransform="translate(0,35.999999)"
       id="pattern4393">
      <rect
         style="fill:#55cdfc;fill-opacity:1;stroke:none;stroke-width:0.839365"
         id="rect4255-4"
         width="35.999996"
         height="7.1999998"
         x="0"
         y="0" />
      <rect
         style="fill:#f7a8b8;fill-opacity:1;stroke:none;stroke-width:0.839365"
         id="rect4255-5-0"
         width="35.999996"
         height="7.1999998"
         x="0"
         y="7.1999989" />
      <rect
         style="fill:#efefef;fill-opacity:1;stroke:none;stroke-width:0.839365"
         id="rect4255-8-2"
         width="35.999996"
         height="7.1999998"
         x="2.7033288e-06"
         y="14.399998" />
      <rect
         style="fill:#f7a8b8;fill-opacity:1;stroke:none;stroke-width:0.839365"
         id="rect4255-2-4"
         width="35.999996"
         height="7.1999998"
         x="0"
         y="21.6" />
      <rect
         style="fill:#55cdfc;fill-opacity:1;stroke:none;stroke-width:0.839365"
         id="rect4255-9-1"
         width="35.999996"
         height="7.1999998"
         x="0"
         y="28.800003" />
    </pattern>
  </defs>
  <sodipodi:namedview
     pagecolor="#ffffff"
     bordercolor="#666666"
     borderopacity="1"
     objecttolerance="10"
     gridtolerance="10"
     guidetolerance="10"
     inkscape:pageopacity="0"
     inkscape:pageshadow="2"
     inkscape:window-width="1837"
     inkscape:window-height="1051"
     id="namedview1013"
     showgrid="false"
     inkscape:zoom="17.284832"
     inkscape:cx="11.992577"
     inkscape:cy="15.569104"
     inkscape:window-x="-9"
     inkscape:window-y="-9"
     inkscape:window-maximized="1"
     inkscape:current-layer="svg1011" />
  <path
     fill="#FFE8B6"
     d="M28 2c2.684-1.342 5 4 3 13-1.106 4.977-5 9-9 12s-11-1-7-5 8-7 10-13c1.304-3.912 1-6 3-7z"
     id="path991"
     style="fill:#ffc5dc;fill-opacity:1" />
  <path
     fill="#FFD983"
     d="M31 8c0 3-1 9-4 13s-7 5-4 1 5-7 6-11 2-7 2-3z"
     id="path993"
     style="fill:#f7a8b8;fill-opacity:1" />
  <path
     fill="#FFCC4D"
     d="M22 20c-.296.592 1.167-3.833-3-6-1.984-1.032-10 1-4 1 3 0 4 2 2 4-.291.292-.489.603-.622.912-.417.346-.873.709-1.378 1.088-2.263 1.697-5.84 4.227-10 7-3 2-4 3-4 4 0 3 9 3 14 1s10-7 10-7l4-4c-3-4-7-2-7-2z"
     id="path995"
     style="fill:#53c6f5;fill-opacity:1" />
  <path
     fill="#FFE8B6"
     d="M22 20s1.792-4.729-3-7c-4.042-1.916-8-1-11 1s-2 4-3 5 1 2 3 0 8.316-4.895 11-4c3 1 2 2.999 3 5z"
     id="path997"
     style="fill:#ffc5dc;fill-opacity:1" />
  <path
     fill="#A6D388"
     d="M26 35h-4c-2 0-3 1-4 1s-2-2 0-2 4 0 5-1 5 2 3 2z"
     id="path999"
     style="fill:#e2e2e2;fill-opacity:1" />
  <circle
     fill="#3E721D"
     cx="18"
     cy="35"
     r="1"
     id="circle1001"
     style="fill:#b0b0b0;fill-opacity:1" />
  <path
     fill="#FFCC4D"
     d="M32.208 28S28 35 26 35h-4c-2 0 0-1 1-2s5 0 5-6c0-3 4.208 1 4.208 1z"
     id="path1003"
     style="fill:#f7a8b8;fill-opacity:1" />
  <path
     fill="#FFE8B6"
     d="M26 19c3 0 8 3 7 9s-5 7-7 7h-2c-2 0-1-1 0-2s4 0 4-6c0-3-4-7-6-7 0 0 2-1 4-1z"
     id="path1005"
     style="fill:#ffc5dc;fill-opacity:1" />
  <path
     fill="#FFD983"
     d="M17 21c3 0 5 1 3 3-1.581 1.581-6 5-10 6s-8 1-5-1 9.764-8 12-8z"
     id="path1007"
     style="fill:#7ae6ff;fill-opacity:1" />
  <path
     fill="#C1694F"
     d="M2 31c1 0 1 0 1 .667C3 32.333 3 33 2 33s-1-1.333-1-1.333S1 31 2 31z"
     id="path1009"
     style="fill:#3683a2;fill-opacity:1" />
</svg>
